<?xml version="1.0" standalone="no"?>
<!DOCTYPE svg PUBLIC "-//W3C//DTD SVG 20010904//EN"
 "http://www.w3.org/TR/2001/REC-SVG-20010904/DTD/svg10.dtd">
<svg version="1.0" xmlns="http://www.w3.org/2000/svg"
 width="1200.000000pt" height="1200.000000pt" viewBox="0 0 1200.000000 1200.000000"
 preserveAspectRatio="xMidYMid meet">

<g transform="translate(0.000000,1200.000000) scale(0.100000,-0.100000)"
fill="#000000" stroke="none">
<path d="M769 10204 c-21 -25 -21 -8222 0 -8247 12 -16 72 -17 682 -17 656 0
669 0 689 20 20 20 20 33 20 1478 0 1378 1 1460 18 1475 15 14 164 16 1522 19
l1505 4 140 22 c301 49 370 63 490 102 33 10 80 24 105 30 25 6 67 22 94 36
28 13 60 24 72 24 12 0 32 8 45 19 13 10 41 23 61 30 20 7 42 18 48 26 6 8 28
19 48 26 20 6 48 20 62 29 14 10 36 21 50 25 14 4 37 17 52 29 14 11 50 35 78
51 126 72 410 329 531 480 27 33 58 71 70 85 11 14 39 54 61 90 23 36 44 67
48 70 3 3 26 41 50 85 24 44 52 91 62 104 10 13 18 31 18 41 0 9 11 38 25 64
14 26 25 52 25 59 0 7 14 39 30 72 16 33 30 71 30 85 0 14 11 48 25 75 13 28
25 63 25 78 0 15 9 55 20 88 12 33 27 108 35 166 9 58 23 140 32 182 25 112
26 660 1 776 -9 44 -22 121 -28 170 -6 50 -20 115 -30 145 -11 30 -24 80 -29
110 -6 30 -19 73 -30 95 -12 21 -21 48 -21 60 0 11 -14 47 -30 80 -16 33 -30
67 -30 76 0 18 -83 184 -126 252 -14 23 -41 67 -59 97 -59 98 -277 367 -340
420 -203 171 -289 239 -345 273 -19 11 -59 36 -89 54 -29 18 -57 33 -61 33 -4
0 -23 11 -43 24 -19 13 -46 27 -58 31 -13 4 -40 18 -59 31 -19 13 -43 24 -53
24 -10 0 -37 11 -60 24 -23 13 -58 27 -77 31 -19 4 -46 14 -60 23 -28 18 -158
56 -270 79 -41 8 -109 24 -150 34 -41 11 -165 29 -275 41 -199 22 -213 22
-2366 25 -2018 3 -2167 2 -2180 -13z m4356 -1272 c22 -6 82 -21 133 -32 50
-10 104 -26 120 -34 15 -8 47 -19 72 -26 25 -6 52 -18 61 -26 8 -7 31 -20 50
-27 50 -19 95 -46 158 -97 31 -25 72 -57 92 -72 38 -29 189 -202 189 -218 0
-4 11 -21 23 -37 13 -15 29 -43 36 -62 6 -19 17 -42 25 -50 33 -38 103 -251
128 -391 6 -31 8 -160 5 -300 -3 -196 -7 -253 -20 -285 -9 -22 -24 -73 -32
-114 -9 -41 -19 -79 -24 -85 -4 -6 -13 -27 -21 -46 -11 -31 -63 -140 -114
-238 -10 -20 -27 -43 -37 -50 -11 -7 -19 -20 -19 -28 0 -18 -181 -208 -230
-240 -19 -13 -61 -41 -92 -64 -32 -22 -60 -40 -63 -40 -3 0 -23 -11 -43 -25
-20 -14 -46 -25 -58 -25 -11 0 -41 -11 -66 -24 -25 -13 -64 -27 -87 -31 -23
-4 -68 -17 -99 -28 l-57 -22 -1479 -3 c-1374 -2 -1480 -1 -1497 14 -18 17 -19
63 -19 1341 0 918 3 1330 11 1344 6 11 20 24 32 29 34 14 2872 6 2922 -8z"/>
<path d="M9918 4835 c-5 -5 -79 -13 -198 -21 -61 -4 -111 -13 -140 -26 -25
-11 -61 -22 -80 -25 -19 -2 -60 -17 -90 -32 -30 -16 -70 -32 -88 -35 -17 -4
-34 -12 -38 -17 -5 -8 -31 -24 -135 -79 -16 -8 -34 -22 -41 -31 -7 -8 -40 -35
-73 -60 -72 -54 -158 -136 -175 -169 -7 -14 -35 -50 -62 -81 -26 -30 -48 -60
-48 -66 0 -6 -12 -27 -27 -46 -48 -63 -74 -109 -80 -141 -3 -17 -16 -50 -29
-72 -13 -23 -26 -61 -30 -85 -4 -24 -16 -64 -27 -89 -46 -109 -46 -614 1 -706
11 -22 23 -62 27 -89 4 -28 14 -57 22 -66 8 -10 20 -40 28 -68 7 -28 22 -62
34 -77 12 -15 21 -32 21 -39 0 -7 7 -18 16 -26 8 -7 25 -31 36 -53 12 -23 30
-54 42 -70 34 -46 269 -282 301 -302 16 -11 36 -25 45 -32 29 -25 95 -65 125
-75 16 -5 42 -18 56 -28 31 -22 82 -41 274 -105 138 -46 608 -48 697 -3 20 10
56 21 80 25 23 3 62 17 85 30 23 13 50 24 60 24 10 0 32 7 48 16 17 9 50 28
75 41 79 42 113 65 195 133 44 37 90 73 102 80 12 8 39 36 60 63 21 27 58 73
82 101 23 28 48 62 54 76 15 32 86 138 98 146 5 3 9 13 9 22 0 9 14 46 30 80
17 35 30 76 30 91 0 14 10 44 22 66 23 41 31 96 44 308 9 139 -12 398 -36 447
-10 19 -21 55 -25 80 -4 25 -15 59 -25 75 -10 17 -24 50 -30 75 -7 24 -23 57
-36 73 -13 16 -24 34 -24 40 0 14 -66 112 -130 193 -61 79 -197 212 -240 235
-19 11 -55 35 -80 54 -42 33 -82 55 -99 55 -4 0 -22 11 -41 25 -19 14 -41 25
-51 25 -9 0 -28 9 -43 21 -15 11 -54 27 -87 35 -33 8 -73 21 -89 29 -16 8 -56
18 -87 20 -32 3 -80 8 -108 11 -27 3 -75 7 -105 10 -30 3 -65 7 -77 9 -12 2
-23 2 -25 0z"/>
</g>
</svg>
