<?xml version="1.0" standalone="no"?>
<!DOCTYPE svg PUBLIC "-//W3C//DTD SVG 20010904//EN"
 "http://www.w3.org/TR/2001/REC-SVG-20010904/DTD/svg10.dtd">
<svg version="1.0" xmlns="http://www.w3.org/2000/svg"
 width="2500.000000pt" height="2500.000000pt" viewBox="0 0 2500.000000 2500.000000"
 preserveAspectRatio="xMidYMid meet">

<g transform="translate(0.000000,2500.000000) scale(0.100000,-0.100000)"
fill="#000000" stroke="none">
<path d="M7980 24130 c0 -6 -90 -10 -249 -10 -156 0 -252 -4 -256 -10 -4 -6
-73 -10 -175 -10 -102 0 -171 -4 -175 -10 -4 -6 -67 -10 -155 -10 -88 0 -151
-4 -155 -10 -4 -6 -55 -10 -120 -10 -65 0 -116 -4 -120 -10 -4 -6 -53 -10
-115 -10 -62 0 -111 -4 -115 -10 -3 -6 -52 -10 -110 -10 -58 0 -107 -4 -110
-10 -3 -6 -50 -10 -104 -10 -75 0 -101 -4 -111 -15 -10 -12 -36 -15 -116 -15
-58 0 -106 -4 -109 -10 -4 -6 -53 -10 -115 -10 -62 0 -111 -4 -115 -10 -3 -6
-48 -10 -100 -10 -52 0 -97 -4 -100 -10 -4 -6 -53 -10 -115 -10 -62 0 -111 -4
-115 -10 -3 -6 -52 -10 -110 -10 -58 0 -107 -4 -110 -10 -3 -6 -50 -10 -105
-10 -55 0 -102 -4 -105 -10 -3 -6 -52 -10 -110 -10 -58 0 -107 -4 -110 -10 -3
-5 -46 -10 -96 -10 -53 0 -89 -4 -89 -10 0 -6 -33 -10 -79 -10 -44 0 -83 -4
-86 -10 -3 -5 -30 -10 -60 -10 -30 0 -57 -4 -60 -10 -3 -5 -28 -10 -56 -10
-27 0 -49 -4 -49 -10 0 -5 -16 -10 -36 -10 -36 0 -64 -18 -64 -41 0 -7 22 -34
50 -60 27 -26 50 -53 50 -61 0 -15 1723 -1738 1738 -1738 6 0 260 -250 566
-555 306 -305 560 -555 566 -555 6 0 335 -324 732 -720 396 -396 726 -720 731
-720 6 0 280 -269 609 -597 329 -329 606 -601 616 -604 9 -4 127 -118 262
-253 135 -135 249 -246 255 -246 6 0 51 -40 100 -90 49 -49 94 -90 100 -90 6
0 33 -22 60 -50 27 -27 54 -50 61 -50 6 0 19 -9 29 -20 10 -11 23 -20 30 -20
7 0 20 -9 30 -20 10 -11 40 -31 68 -45 67 -33 178 -35 232 -5 20 11 44 20 54
20 10 0 24 7 31 15 8 9 29 15 56 15 23 0 46 5 49 10 3 6 30 10 60 10 30 0 57
5 60 10 3 6 50 10 105 10 55 0 102 4 105 10 4 6 77 10 186 10 113 0 179 4 179
10 0 7 141 10 404 10 259 0 407 -4 411 -10 4 -6 70 -10 165 -10 95 0 161 -4
165 -10 3 -5 44 -10 90 -10 46 0 87 -4 90 -10 3 -5 37 -10 75 -10 38 0 72 -4
75 -10 3 -5 30 -10 59 -10 35 0 58 -5 66 -15 8 -9 29 -15 56 -15 23 0 46 -4
49 -10 3 -5 26 -10 50 -10 24 0 47 -4 50 -10 3 -5 21 -10 40 -10 19 0 37 -4
40 -10 3 -5 19 -10 36 -10 16 0 29 -4 29 -10 0 -5 16 -10 35 -10 19 0 50 -9
70 -20 20 -11 44 -20 55 -20 10 0 22 -4 25 -10 3 -5 17 -10 30 -10 13 0 27 -4
30 -10 3 -5 14 -10 25 -10 10 0 44 -13 75 -30 31 -16 63 -30 71 -30 7 0 29 -9
49 -20 20 -11 42 -20 50 -20 8 0 15 -4 15 -10 0 -5 9 -10 20 -10 11 0 20 -4
20 -10 0 -5 9 -10 20 -10 11 0 20 -4 20 -10 0 -5 8 -10 18 -10 10 0 24 -9 32
-20 8 -11 19 -20 26 -20 17 0 70 -29 85 -46 7 -8 31 -24 54 -34 23 -10 48 -26
55 -35 7 -8 18 -15 25 -15 6 0 20 -9 30 -20 10 -11 23 -20 30 -20 6 0 24 -13
40 -30 16 -16 34 -30 40 -30 7 0 20 -9 30 -20 10 -11 23 -20 30 -20 6 0 29
-18 50 -40 21 -22 44 -40 50 -40 6 0 29 -18 50 -40 21 -22 44 -40 50 -40 6 0
40 -29 75 -65 35 -36 69 -65 75 -65 6 0 55 -45 110 -100 55 -55 104 -100 110
-100 13 0 395 -382 395 -395 0 -6 52 -62 114 -124 63 -63 113 -118 111 -121
-2 -4 25 -35 60 -70 36 -36 65 -69 65 -75 0 -6 18 -29 40 -50 22 -21 40 -44
40 -50 0 -6 18 -29 40 -50 22 -21 40 -44 40 -50 0 -6 18 -29 40 -50 22 -21 40
-44 40 -50 0 -6 16 -26 35 -45 19 -18 32 -36 30 -40 -2 -4 7 -18 20 -30 14
-13 25 -29 25 -35 0 -6 14 -24 30 -40 17 -16 30 -34 30 -40 0 -7 9 -20 20 -30
11 -10 20 -23 20 -30 0 -7 9 -20 20 -30 11 -10 20 -25 20 -34 0 -9 9 -22 20
-29 11 -7 20 -20 20 -30 0 -10 9 -24 20 -32 11 -8 20 -22 20 -32 0 -10 5 -18
10 -18 6 0 10 -8 10 -18 0 -10 9 -24 20 -32 11 -8 20 -22 20 -32 0 -10 5 -18
10 -18 6 0 10 -8 10 -18 0 -10 9 -24 20 -32 11 -8 20 -22 20 -31 0 -9 7 -22
15 -29 8 -7 13 -16 10 -20 -3 -5 6 -17 20 -28 14 -11 25 -27 25 -36 0 -9 5
-16 10 -16 6 0 10 -6 10 -13 0 -7 50 -111 110 -232 61 -121 110 -225 110 -232
0 -7 5 -13 10 -13 6 0 10 -13 10 -30 0 -16 5 -30 10 -30 6 0 10 -9 10 -20 0
-11 5 -20 10 -20 6 0 10 -7 10 -16 0 -8 7 -22 15 -30 8 -8 12 -21 8 -30 -3 -8
3 -24 12 -34 10 -11 14 -20 10 -20 -4 0 -1 -8 9 -19 9 -10 14 -25 11 -33 -3
-8 1 -21 10 -28 8 -7 15 -21 15 -31 0 -10 9 -34 20 -54 11 -20 20 -44 20 -55
0 -10 5 -22 10 -25 6 -3 10 -17 10 -30 0 -13 5 -27 10 -30 6 -3 10 -17 10 -30
0 -13 5 -27 10 -30 6 -3 10 -17 10 -30 0 -13 5 -27 10 -30 6 -3 10 -24 10 -46
0 -21 5 -39 10 -39 6 0 10 -13 10 -30 0 -16 5 -30 10 -30 6 0 10 -18 10 -40 0
-22 5 -40 10 -40 6 0 10 -13 10 -29 0 -17 5 -33 10 -36 6 -3 10 -21 10 -40 0
-19 5 -37 10 -40 6 -3 10 -21 10 -40 0 -19 5 -37 10 -40 6 -3 10 -26 10 -50 0
-24 5 -47 10 -50 6 -3 10 -28 10 -56 0 -27 5 -49 10 -49 6 0 10 -22 10 -50 0
-27 5 -50 10 -50 6 0 10 -26 10 -59 0 -33 5 -63 10 -66 6 -3 10 -30 10 -59 0
-28 6 -58 12 -64 8 -8 12 -35 10 -76 -3 -52 -1 -64 13 -70 14 -5 16 -19 14
-90 -2 -57 1 -89 10 -99 8 -11 12 -48 10 -122 -1 -68 3 -111 10 -118 8 -8 11
-105 11 -323 0 -198 4 -315 10 -319 13 -8 13 -352 0 -360 -6 -3 -10 -50 -10
-104 0 -74 -4 -102 -14 -111 -8 -6 -12 -18 -9 -26 7 -19 -25 -54 -49 -54 -10
0 -18 -4 -18 -10 0 -6 -33 -10 -79 -10 -44 0 -83 -4 -86 -10 -3 -5 -14 -10
-23 -10 -22 0 -237 -107 -253 -126 -6 -8 -17 -14 -24 -14 -7 0 -18 -7 -25 -15
-7 -9 -33 -25 -56 -35 -24 -11 -46 -24 -49 -30 -3 -6 -25 -19 -48 -30 -23 -12
-55 -29 -72 -40 -16 -10 -38 -19 -47 -19 -10 -1 -18 -5 -18 -11 0 -5 -13 -10
-30 -10 -16 0 -30 -4 -30 -10 0 -5 -9 -10 -20 -10 -11 0 -20 -4 -20 -10 0 -5
-13 -10 -29 -10 -17 0 -33 -5 -36 -10 -3 -6 -21 -10 -40 -10 -19 0 -37 -5 -40
-10 -16 -26 -85 4 -85 36 0 12 138 144 151 144 6 0 32 23 59 50 27 28 54 50
60 50 6 0 29 18 50 40 21 22 45 40 52 40 8 0 34 20 58 45 24 25 49 45 55 45
14 0 235 226 235 240 0 6 14 23 30 37 17 13 30 33 30 44 0 10 5 19 10 19 6 0
10 9 10 20 0 11 5 20 10 20 6 0 10 9 10 20 0 11 7 23 16 27 8 3 13 12 10 20
-3 7 1 16 10 20 9 3 14 13 11 25 -3 10 1 25 9 32 8 8 14 30 14 50 0 19 5 38
10 41 6 3 10 35 10 70 0 35 5 67 10 70 6 4 10 65 10 150 0 85 -4 146 -10 150
-6 4 -10 53 -10 116 0 66 -4 109 -10 109 -6 0 -10 33 -10 78 0 46 -5 83 -12
90 -7 7 -11 35 -9 70 2 44 -2 62 -14 72 -12 10 -16 27 -14 61 2 28 -3 54 -10
63 -9 10 -12 31 -8 56 3 27 1 43 -9 51 -8 7 -14 30 -14 55 0 23 -4 46 -10 49
-5 3 -10 26 -10 50 0 24 -4 47 -10 50 -5 3 -10 21 -10 40 0 19 -4 37 -10 40
-5 3 -10 21 -10 40 0 19 -4 37 -10 40 -5 3 -10 24 -10 46 0 21 -4 39 -10 39
-5 0 -10 14 -10 30 0 17 -4 30 -10 30 -5 0 -10 18 -10 40 0 22 -4 40 -10 40
-5 0 -10 13 -10 29 0 17 -4 33 -10 36 -5 3 -10 17 -10 30 0 13 -4 27 -10 30
-5 3 -10 17 -10 30 0 13 -4 27 -10 30 -5 3 -10 21 -10 40 0 19 -4 37 -10 40
-5 3 -10 19 -10 36 0 16 -4 29 -10 29 -5 0 -10 9 -10 20 0 11 -4 20 -10 20 -5
0 -10 14 -10 30 0 17 -4 30 -10 30 -5 0 -10 14 -10 30 0 17 -4 30 -10 30 -5 0
-10 9 -10 20 0 11 -4 20 -10 20 -5 0 -10 13 -10 29 0 16 -6 34 -14 41 -8 6
-12 18 -9 26 3 8 -3 24 -12 34 -10 11 -14 20 -10 20 4 0 2 8 -6 18 -22 27 -39
60 -39 75 0 8 -18 49 -40 92 -22 43 -40 83 -40 90 0 7 -13 39 -30 70 -16 31
-30 63 -30 71 0 8 -4 14 -10 14 -5 0 -10 9 -10 20 0 11 -4 20 -10 20 -5 0 -10
9 -10 20 0 11 -4 20 -10 20 -5 0 -10 9 -10 20 0 11 -4 20 -10 20 -5 0 -10 9
-10 20 0 11 -4 20 -10 20 -5 0 -10 8 -10 18 0 10 -9 24 -20 32 -11 8 -20 22
-20 32 0 10 -4 18 -10 18 -5 0 -10 6 -10 13 0 21 -28 72 -50 92 -11 10 -17 21
-15 25 3 4 -2 13 -10 20 -8 7 -15 18 -15 25 0 7 -7 18 -15 25 -9 7 -25 32 -35
55 -10 23 -26 48 -35 55 -8 7 -15 18 -15 25 0 6 -9 20 -20 30 -11 10 -20 23
-20 30 0 7 -9 20 -20 30 -11 10 -20 23 -20 30 0 7 -9 20 -20 30 -11 10 -20 23
-20 30 0 7 -9 20 -20 30 -11 10 -20 23 -20 30 0 6 -13 24 -30 40 -16 16 -30
34 -30 40 0 6 -16 26 -35 45 -19 18 -32 36 -30 40 2 4 -16 26 -40 50 -25 24
-45 49 -45 55 0 6 -22 33 -50 60 -27 27 -50 55 -50 61 0 14 -514 526 -538 536
-9 3 -37 27 -62 52 -24 25 -49 46 -55 46 -6 0 -29 18 -50 40 -21 22 -44 40
-50 40 -6 0 -26 16 -45 35 -19 19 -39 35 -45 35 -6 0 -24 14 -40 30 -16 17
-34 30 -40 30 -7 0 -20 9 -30 20 -10 11 -23 20 -30 20 -7 0 -20 9 -30 20 -10
11 -24 20 -30 20 -7 0 -18 7 -25 15 -7 9 -33 25 -56 35 -24 11 -46 24 -49 30
-3 6 -26 19 -50 30 -24 11 -46 24 -50 29 -3 6 -44 28 -90 51 -46 23 -87 45
-90 51 -4 5 -15 9 -26 9 -10 0 -19 5 -19 10 0 6 -9 10 -20 10 -11 0 -20 5 -20
10 0 6 -9 10 -20 10 -11 0 -20 5 -20 10 0 6 -9 10 -19 10 -11 0 -23 5 -26 10
-3 6 -15 10 -25 10 -11 0 -35 9 -55 20 -20 11 -42 20 -50 20 -8 0 -30 9 -50
20 -20 11 -44 20 -55 20 -10 0 -22 5 -25 10 -3 6 -17 10 -30 10 -13 0 -27 5
-30 10 -3 6 -17 10 -30 10 -13 0 -27 5 -30 10 -3 6 -19 10 -36 10 -16 0 -29 5
-29 10 0 6 -18 10 -40 10 -22 0 -40 5 -40 10 0 6 -13 10 -29 10 -17 0 -33 5
-36 10 -3 6 -21 10 -40 10 -19 0 -37 5 -40 10 -3 6 -21 10 -40 10 -19 0 -37 5
-40 10 -3 6 -26 10 -50 10 -24 0 -47 5 -50 10 -3 6 -33 10 -66 10 -33 0 -59 4
-59 10 0 6 -26 10 -59 10 -33 0 -63 5 -66 10 -3 6 -39 10 -79 10 -53 0 -77 4
-86 15 -10 12 -37 15 -121 15 -66 0 -109 4 -109 10 0 7 -158 10 -454 10 -293
0 -457 -4 -461 -10 -4 -6 -63 -10 -145 -10 -113 0 -139 -3 -144 -15 -4 -12
-25 -15 -95 -15 -49 0 -93 -4 -96 -10 -3 -5 -39 -10 -80 -10 -41 0 -77 -4 -80
-10 -3 -5 -33 -10 -66 -10 -33 0 -59 -4 -59 -10 0 -6 -26 -10 -59 -10 -33 0
-63 -4 -66 -10 -3 -5 -26 -10 -50 -10 -24 0 -47 -4 -50 -10 -3 -5 -26 -10 -50
-10 -24 0 -47 -4 -50 -10 -3 -5 -26 -10 -50 -10 -24 0 -47 -4 -50 -10 -3 -5
-28 -10 -56 -10 -27 0 -49 -4 -49 -10 0 -5 -18 -10 -39 -10 -22 0 -43 -4 -46
-10 -3 -5 -26 -10 -50 -10 -24 0 -47 -4 -50 -10 -3 -5 -26 -10 -50 -10 -24 0
-47 -4 -50 -10 -3 -5 -21 -10 -40 -10 -19 0 -37 -4 -40 -10 -3 -5 -24 -10 -46
-10 -21 0 -39 -4 -39 -10 0 -5 -18 -10 -40 -10 -22 0 -40 -4 -40 -10 0 -5 -18
-10 -39 -10 -22 0 -43 -4 -46 -10 -3 -6 -21 -10 -40 -10 -19 0 -37 -4 -40 -10
-3 -5 -17 -10 -30 -10 -13 0 -27 -4 -30 -10 -3 -5 -21 -10 -40 -10 -19 0 -37
-4 -40 -10 -3 -5 -21 -10 -40 -10 -19 0 -37 -4 -40 -10 -3 -5 -17 -10 -29 -10
-13 0 -29 -7 -36 -15 -7 -9 -29 -15 -51 -15 -21 0 -41 -4 -44 -10 -3 -5 -17
-10 -30 -10 -13 0 -27 -4 -30 -10 -3 -5 -17 -10 -30 -10 -13 0 -27 -4 -30 -10
-3 -5 -17 -10 -30 -10 -13 0 -27 -4 -30 -10 -3 -5 -17 -10 -30 -10 -13 0 -27
-4 -30 -10 -3 -5 -17 -10 -30 -10 -13 0 -27 -4 -30 -10 -3 -5 -15 -10 -25 -10
-11 0 -35 -9 -55 -20 -20 -11 -44 -20 -55 -20 -10 0 -22 -4 -25 -10 -3 -5 -15
-10 -26 -10 -10 0 -19 -4 -19 -10 0 -5 -9 -10 -20 -10 -11 0 -20 -4 -20 -10 0
-5 -7 -10 -16 -10 -8 0 -22 -6 -30 -14 -16 -16 -19 -86 -4 -86 6 0 10 -13 10
-30 0 -16 5 -30 10 -30 6 0 10 -8 10 -19 0 -10 7 -24 15 -31 9 -7 25 -32 35
-55 10 -23 26 -48 35 -55 8 -7 15 -18 15 -25 0 -6 9 -20 20 -30 11 -10 20 -23
20 -30 0 -6 11 -22 25 -35 13 -12 22 -26 20 -30 -2 -4 7 -18 20 -30 14 -13 25
-29 25 -35 0 -6 14 -24 30 -40 16 -16 30 -34 30 -40 0 -6 14 -24 30 -40 17
-16 30 -34 30 -40 0 -6 14 -24 30 -40 17 -16 30 -34 30 -40 0 -6 18 -29 40
-50 22 -21 40 -44 40 -50 0 -6 14 -24 30 -40 17 -16 30 -34 30 -40 0 -6 20
-31 45 -55 25 -24 45 -49 45 -55 0 -6 27 -37 60 -70 33 -33 60 -65 60 -73 0
-7 22 -35 50 -62 27 -27 50 -54 50 -60 0 -7 34 -44 75 -83 41 -38 75 -76 75
-82 0 -6 36 -49 80 -94 44 -45 80 -86 80 -91 0 -13 688 -700 701 -700 5 0 45
-36 89 -80 44 -44 85 -80 92 -80 7 -1 36 -23 63 -50 28 -28 55 -50 60 -50 6 0
33 -22 60 -50 27 -27 54 -50 60 -50 6 0 31 -20 55 -45 24 -25 49 -45 55 -45 6
0 29 -18 50 -40 21 -22 44 -40 50 -40 6 0 24 -13 40 -30 16 -16 34 -30 40 -30
6 0 24 -13 40 -30 16 -16 34 -30 40 -30 6 0 24 -13 40 -30 16 -16 34 -30 40
-30 7 0 20 -9 30 -20 10 -11 23 -20 30 -20 6 0 24 -13 40 -30 16 -16 34 -30
40 -30 6 0 22 -11 35 -25 13 -14 29 -25 35 -25 7 0 20 -9 30 -20 10 -11 23
-20 30 -20 7 0 20 -9 30 -20 10 -11 23 -20 30 -20 7 0 20 -9 30 -20 10 -11 25
-20 34 -20 9 0 23 -9 31 -20 8 -11 21 -20 30 -20 9 0 22 -9 30 -20 8 -11 21
-20 30 -20 9 0 22 -9 30 -20 8 -11 22 -20 32 -20 10 0 18 -4 18 -10 0 -5 9
-10 20 -10 11 0 20 -4 20 -9 0 -5 16 -16 35 -25 19 -9 37 -21 40 -26 3 -6 25
-19 49 -30 23 -10 49 -26 56 -35 7 -9 33 -25 56 -35 24 -11 45 -24 49 -30 3
-5 35 -23 70 -40 35 -17 67 -35 70 -39 3 -5 40 -26 83 -47 42 -21 85 -44 94
-52 23 -20 108 -62 125 -62 7 0 13 -4 13 -10 0 -5 9 -10 20 -10 11 0 20 -4 20
-10 0 -5 9 -10 20 -10 11 0 20 -4 20 -10 0 -5 9 -10 20 -10 11 0 20 -4 20 -10
0 -5 9 -10 20 -10 11 0 23 -7 26 -15 4 -8 11 -15 18 -15 6 0 137 -63 291 -140
154 -77 285 -140 292 -140 7 0 13 -4 13 -10 0 -5 9 -10 20 -10 11 0 20 -4 20
-10 0 -5 9 -10 20 -10 11 0 20 -4 20 -10 0 -5 9 -10 20 -10 11 0 20 -4 20 -10
0 -5 8 -10 18 -11 23 -1 73 -30 86 -51 8 -13 6 -22 -8 -37 -16 -17 -31 -21
-82 -21 -35 0 -66 5 -69 10 -3 6 -24 10 -46 10 -21 0 -39 5 -39 10 0 6 -13 10
-30 10 -16 0 -30 5 -30 10 0 6 -18 10 -39 10 -22 0 -43 4 -46 10 -3 5 -15 10
-25 10 -11 0 -35 9 -55 20 -20 11 -44 20 -55 20 -10 0 -22 5 -25 10 -3 6 -17
10 -30 10 -13 0 -27 5 -30 10 -3 6 -17 10 -30 10 -13 0 -26 4 -30 9 -7 13 -64
41 -81 41 -7 0 -29 9 -49 20 -20 11 -47 20 -60 20 -14 0 -25 5 -25 10 0 6 -9
10 -20 10 -11 0 -20 5 -20 10 0 6 -13 10 -30 10 -16 0 -30 5 -30 10 0 6 -9 10
-20 10 -11 0 -20 5 -20 10 0 6 -11 10 -24 10 -13 0 -50 14 -81 30 -31 17 -63
30 -69 30 -7 0 -57 23 -111 50 -54 28 -103 50 -109 50 -15 0 -195 90 -202 101
-3 5 -14 9 -25 9 -10 0 -19 5 -19 10 0 6 -9 10 -20 10 -11 0 -20 5 -20 10 0 6
-9 10 -20 10 -11 0 -20 5 -20 10 0 6 -6 10 -13 10 -16 0 -382 183 -405 202 -9
8 -43 27 -74 42 -32 15 -60 31 -63 36 -3 5 -34 23 -68 39 -35 17 -71 39 -82
51 -10 11 -25 20 -34 20 -9 0 -23 9 -31 20 -8 11 -22 20 -32 20 -10 0 -18 5
-18 10 0 6 -8 10 -18 10 -10 0 -24 9 -32 20 -8 11 -21 20 -30 20 -9 0 -22 9
-30 20 -8 11 -22 20 -31 20 -9 0 -24 9 -34 20 -10 11 -23 20 -30 20 -7 0 -20
9 -30 20 -10 11 -23 20 -30 20 -7 0 -20 9 -30 20 -10 11 -23 20 -30 20 -7 0
-20 9 -30 20 -10 11 -23 20 -30 20 -7 0 -20 9 -30 20 -10 11 -23 20 -30 20 -6
0 -22 11 -35 25 -13 14 -29 25 -35 25 -6 0 -24 14 -40 30 -16 17 -34 30 -40
30 -6 0 -24 14 -40 30 -16 16 -34 30 -40 30 -6 0 -24 14 -40 30 -16 16 -34 30
-40 30 -6 0 -24 14 -40 30 -16 17 -34 30 -40 30 -6 0 -29 18 -50 40 -21 22
-44 40 -50 40 -6 0 -31 20 -55 45 -24 25 -49 45 -55 45 -6 0 -33 23 -60 50
-27 28 -55 50 -63 50 -7 0 -40 27 -72 60 -32 33 -64 60 -70 60 -6 0 -46 36
-90 80 -44 44 -84 80 -90 80 -14 0 -640 626 -640 640 0 7 -43 53 -95 104 -52
51 -95 98 -95 105 0 7 -27 39 -60 71 -33 32 -60 64 -60 70 0 6 -23 33 -50 60
-28 27 -50 54 -50 60 0 6 -18 29 -40 50 -22 21 -40 45 -40 52 0 8 -20 34 -45
58 -24 24 -42 47 -40 51 3 4 -11 21 -30 38 -19 17 -35 37 -35 45 0 8 -14 26
-30 39 -16 14 -30 32 -30 39 0 8 -13 27 -30 43 -16 16 -30 34 -30 40 0 6 -14
24 -30 40 -16 16 -30 34 -30 40 0 6 -13 24 -30 40 -16 16 -30 34 -30 40 0 7
-9 20 -20 30 -11 10 -20 23 -20 30 0 6 -11 22 -25 35 -13 12 -22 26 -20 30 2
4 -7 18 -20 30 -14 13 -25 29 -25 35 0 7 -9 20 -20 30 -11 10 -20 23 -20 30 0
7 -9 20 -20 30 -11 10 -20 23 -20 30 0 7 -9 20 -20 30 -11 10 -20 23 -20 30 0
7 -9 20 -20 30 -11 10 -20 23 -20 30 0 7 -9 20 -20 30 -11 10 -20 25 -20 34 0
9 -9 22 -20 29 -11 7 -20 21 -20 32 0 11 -4 20 -10 20 -5 0 -10 8 -10 18 0 10
-9 24 -20 32 -11 8 -20 21 -20 30 0 9 -9 22 -20 30 -11 8 -20 22 -20 31 0 9
-7 20 -16 23 -9 3 -14 13 -10 21 3 8 -5 22 -19 34 -14 10 -25 26 -25 35 0 9
-4 16 -10 16 -5 0 -10 9 -10 20 0 11 -4 20 -10 20 -5 0 -10 9 -10 20 0 11 -9
25 -20 32 -11 7 -20 21 -20 30 0 10 -4 18 -10 18 -5 0 -10 9 -10 20 0 11 -4
20 -10 20 -5 0 -10 8 -10 19 0 10 -7 24 -15 31 -8 6 -37 59 -65 116 -28 57
-55 106 -60 109 -5 3 -21 31 -36 63 -15 31 -34 65 -42 75 -8 9 -11 17 -7 17 4
0 0 9 -10 20 -10 11 -15 20 -10 20 4 0 2 7 -5 15 -19 23 -60 106 -60 122 0 7
-4 13 -10 13 -5 0 -10 9 -10 20 0 11 -4 20 -10 20 -5 0 -10 9 -10 20 0 11 -4
20 -10 20 -5 0 -10 9 -10 20 0 11 -4 20 -10 20 -5 0 -10 9 -10 20 0 11 -4 20
-10 20 -5 0 -10 9 -10 20 0 11 -4 20 -10 20 -5 0 -10 9 -10 20 0 11 -4 20 -10
20 -5 0 -10 11 -10 23 0 13 -22 68 -50 122 -27 54 -50 103 -50 110 0 14 -62
138 -79 159 -7 8 -10 20 -6 26 4 6 1 19 -7 28 -25 32 -38 62 -38 87 0 14 -4
25 -10 25 -5 0 -10 9 -10 20 0 11 -4 20 -10 20 -5 0 -10 9 -10 20 0 11 -4 20
-10 20 -5 0 -10 14 -10 30 0 17 -4 30 -10 30 -5 0 -10 11 -10 25 0 13 -9 40
-20 60 -11 20 -20 44 -20 55 0 10 -4 22 -10 25 -5 3 -10 17 -10 30 0 13 -4 27
-10 30 -5 3 -10 17 -10 30 0 13 -4 27 -10 30 -5 3 -10 17 -10 30 0 13 -4 27
-10 30 -5 3 -10 24 -10 46 0 21 -4 39 -10 39 -5 0 -10 18 -10 40 0 22 -4 40
-10 40 -6 0 -10 31 -10 74 0 116 -33 156 -129 156 -41 0 -52 -5 -84 -38 -20
-21 -37 -45 -37 -53 0 -8 -9 -21 -20 -29 -11 -8 -20 -22 -20 -32 0 -10 -4 -18
-10 -18 -5 0 -10 -9 -10 -20 0 -11 -4 -20 -10 -20 -5 0 -10 -9 -10 -20 0 -11
-4 -20 -10 -20 -5 0 -10 -9 -10 -20 0 -11 -4 -20 -10 -20 -5 0 -10 -9 -10 -20
0 -11 -4 -20 -10 -20 -5 0 -10 -9 -10 -20 0 -11 -4 -20 -10 -20 -5 0 -10 -9
-10 -19 0 -11 -4 -23 -10 -26 -5 -3 -10 -15 -10 -25 0 -11 -9 -35 -20 -55 -11
-20 -20 -42 -20 -50 0 -8 -9 -30 -20 -50 -11 -20 -20 -44 -20 -55 0 -10 -4
-22 -10 -25 -5 -3 -10 -19 -10 -36 0 -16 -4 -29 -10 -29 -5 0 -10 -13 -10 -30
0 -16 -4 -30 -10 -30 -5 0 -10 -9 -10 -20 0 -11 -4 -20 -10 -20 -5 0 -10 -12
-10 -26 0 -14 -6 -32 -14 -40 -8 -7 -12 -22 -9 -32 2 -10 -2 -24 -11 -31 -8
-7 -12 -19 -9 -27 3 -8 -2 -23 -11 -33 -9 -10 -14 -25 -11 -33 3 -8 -1 -21
-10 -28 -8 -7 -15 -23 -15 -36 0 -12 -4 -26 -10 -29 -5 -3 -10 -17 -10 -30 0
-13 -4 -27 -10 -30 -5 -3 -10 -17 -10 -30 0 -13 -4 -27 -10 -30 -5 -3 -10 -17
-10 -30 0 -13 -4 -27 -10 -30 -5 -3 -10 -19 -10 -36 0 -16 -4 -29 -10 -29 -5
0 -10 -13 -10 -30 0 -16 -4 -30 -10 -30 -5 0 -10 -18 -10 -40 0 -22 -4 -40
-10 -40 -5 0 -10 -13 -10 -30 0 -16 -4 -30 -10 -30 -5 0 -10 -13 -10 -29 0
-17 -4 -33 -10 -36 -5 -3 -10 -17 -10 -30 0 -13 -4 -27 -10 -30 -5 -3 -10 -21
-10 -40 0 -19 -4 -37 -10 -40 -5 -3 -10 -17 -10 -30 0 -13 -4 -27 -10 -30 -5
-3 -10 -21 -10 -40 0 -19 -4 -37 -10 -40 -5 -3 -10 -19 -10 -36 0 -16 -4 -29
-10 -29 -5 0 -10 -18 -10 -40 0 -22 -4 -40 -10 -40 -5 0 -10 -18 -10 -39 0
-22 -4 -43 -10 -46 -5 -3 -10 -17 -10 -29 0 -13 -6 -29 -14 -35 -7 -6 -11 -22
-8 -36 3 -16 -2 -33 -13 -45 -11 -12 -15 -28 -12 -42 4 -13 0 -29 -10 -40 -9
-10 -14 -28 -11 -43 3 -14 -1 -30 -8 -36 -8 -6 -14 -26 -14 -45 0 -18 -4 -36
-10 -39 -5 -3 -10 -28 -10 -56 0 -27 -4 -49 -10 -49 -5 0 -10 -18 -10 -40 0
-22 -4 -40 -10 -40 -5 0 -10 -22 -10 -49 0 -28 -4 -53 -10 -56 -5 -3 -10 -21
-10 -40 0 -19 -4 -37 -10 -40 -5 -3 -10 -26 -10 -50 0 -24 -4 -47 -10 -50 -5
-3 -10 -28 -10 -56 0 -27 -4 -49 -10 -49 -5 0 -10 -22 -10 -50 0 -27 -4 -50
-10 -50 -5 0 -10 -22 -10 -49 0 -28 -4 -53 -10 -56 -5 -3 -10 -30 -10 -60 0
-30 -4 -57 -10 -60 -5 -3 -10 -33 -10 -66 0 -33 -4 -59 -10 -59 -6 0 -10 -27
-10 -60 0 -33 -4 -60 -10 -60 -6 0 -10 -26 -10 -59 0 -33 -4 -63 -10 -66 -5
-3 -10 -30 -10 -60 0 -30 -4 -57 -10 -60 -5 -3 -10 -35 -10 -70 0 -35 -4 -67
-10 -70 -5 -3 -10 -37 -10 -75 0 -38 -4 -72 -10 -75 -5 -3 -10 -39 -10 -79 0
-42 -5 -77 -12 -84 -7 -7 -11 -35 -9 -70 2 -44 -2 -62 -14 -72 -13 -11 -16
-29 -13 -89 2 -52 -1 -76 -10 -79 -8 -2 -12 -31 -12 -92 0 -49 -4 -92 -10 -95
-6 -3 -10 -44 -10 -90 0 -46 -5 -87 -10 -90 -6 -3 -10 -46 -10 -95 0 -49 -5
-92 -10 -95 -6 -3 -10 -48 -10 -100 0 -52 -4 -97 -10 -100 -6 -4 -10 -53 -10
-116 0 -66 -4 -109 -10 -109 -6 0 -10 -40 -10 -99 0 -56 -4 -103 -10 -106 -6
-4 -10 -57 -10 -126 0 -73 -4 -119 -10 -119 -6 0 -10 -46 -10 -119 0 -69 -4
-122 -10 -126 -6 -4 -10 -53 -10 -116 0 -66 -4 -109 -10 -109 -6 0 -10 -52
-10 -135 0 -83 -4 -135 -10 -135 -6 0 -10 -46 -10 -119 0 -69 -4 -122 -10
-126 -6 -4 -10 -53 -10 -116 0 -66 -4 -109 -10 -109 -6 0 -10 -40 -10 -99 0
-56 -4 -103 -10 -106 -6 -4 -10 -53 -10 -116 0 -66 -4 -109 -10 -109 -6 0 -10
-36 -10 -89 0 -50 -4 -93 -10 -96 -5 -3 -10 -44 -10 -90 0 -46 -5 -87 -10 -90
-6 -3 -10 -42 -10 -86 0 -46 -4 -79 -10 -79 -6 0 -10 -33 -10 -78 0 -46 -5
-83 -12 -90 -7 -7 -11 -35 -9 -70 2 -44 -2 -62 -14 -72 -12 -10 -16 -28 -14
-72 2 -35 -2 -63 -9 -70 -7 -7 -12 -38 -12 -70 0 -32 -4 -58 -10 -58 -6 0 -10
-26 -10 -59 0 -33 -4 -63 -10 -66 -5 -3 -10 -26 -10 -50 0 -24 -4 -47 -10 -50
-6 -3 -10 -30 -10 -60 0 -30 -4 -57 -10 -60 -5 -3 -10 -28 -10 -56 0 -27 -4
-49 -10 -49 -5 0 -10 -22 -10 -50 0 -27 -4 -50 -10 -50 -5 0 -10 -18 -10 -39
0 -22 -5 -43 -10 -46 -6 -3 -10 -26 -10 -50 0 -24 -5 -47 -10 -50 -6 -3 -10
-26 -10 -50 0 -24 -5 -47 -10 -50 -6 -3 -10 -24 -10 -46 0 -21 -4 -39 -10 -39
-5 0 -10 -18 -10 -40 0 -22 -4 -40 -10 -40 -5 0 -10 -18 -10 -40 0 -22 -4 -40
-10 -40 -5 0 -10 -22 -10 -49 0 -28 -4 -53 -10 -56 -5 -3 -10 -21 -10 -40 0
-19 -4 -37 -10 -40 -6 -3 -10 -21 -10 -40 0 -19 -4 -37 -10 -40 -6 -3 -10 -21
-10 -40 0 -19 -4 -37 -10 -40 -6 -3 -10 -19 -10 -35 0 -16 -7 -30 -15 -34 -11
-4 -14 -13 -9 -31 4 -18 2 -27 -10 -31 -11 -4 -14 -13 -10 -30 4 -17 1 -26
-11 -30 -11 -5 -15 -14 -11 -29 4 -14 0 -28 -9 -35 -8 -7 -15 -23 -15 -36 0
-12 -4 -26 -10 -29 -5 -3 -10 -17 -10 -30 0 -13 -4 -27 -10 -30 -6 -3 -10 -17
-10 -30 0 -13 -4 -27 -10 -30 -6 -3 -10 -15 -10 -25 0 -11 -9 -35 -20 -55 -11
-20 -20 -44 -20 -55 0 -10 -5 -22 -10 -25 -6 -3 -10 -19 -10 -36 0 -16 -4 -29
-10 -29 -5 0 -10 -9 -10 -20 0 -11 -4 -20 -10 -20 -5 0 -10 -13 -10 -30 0 -16
-4 -30 -10 -30 -5 0 -10 -9 -10 -20 0 -11 -4 -20 -10 -20 -5 0 -10 -9 -10 -20
0 -11 -4 -20 -10 -20 -5 0 -10 -11 -10 -25 0 -13 -9 -40 -20 -60 -11 -20 -20
-41 -20 -48 0 -15 -61 -140 -80 -162 -7 -8 -9 -15 -5 -15 5 0 0 -9 -9 -19 -10
-11 -15 -25 -11 -31 4 -6 1 -18 -6 -26 -18 -22 -99 -186 -99 -201 0 -7 -4 -13
-10 -13 -5 0 -10 -9 -10 -20 0 -11 -4 -20 -10 -20 -5 0 -10 -9 -10 -20 0 -11
-4 -20 -10 -20 -5 0 -10 -9 -10 -20 0 -11 -4 -20 -10 -20 -5 0 -10 -9 -10 -20
0 -11 -4 -20 -10 -20 -5 0 -10 -8 -10 -18 0 -10 -9 -24 -20 -32 -11 -8 -20
-22 -20 -32 0 -10 -4 -18 -10 -18 -5 0 -10 -6 -10 -13 0 -20 -28 -73 -45 -87
-8 -7 -15 -18 -15 -25 0 -6 -9 -20 -20 -30 -11 -10 -20 -23 -20 -30 0 -6 -11
-22 -25 -35 -13 -12 -22 -26 -20 -30 2 -4 -7 -18 -20 -30 -14 -13 -25 -29 -25
-36 0 -6 -7 -17 -15 -24 -18 -15 -65 -109 -65 -131 0 -10 -5 -21 -10 -24 -5
-3 -10 -33 -10 -66 l0 -59 54 0 c30 0 58 5 61 10 3 6 17 10 30 10 13 0 26 4
30 9 9 16 66 41 92 41 12 0 23 5 23 10 0 6 9 10 20 10 11 0 20 5 20 10 0 6 9
10 20 10 11 0 20 5 20 10 0 6 6 10 13 10 16 0 182 83 205 102 9 8 52 31 94 52
43 21 80 42 84 47 3 5 25 18 49 29 24 11 47 24 50 30 3 6 25 19 49 30 23 10
49 26 56 35 7 9 32 25 55 35 23 10 48 26 55 35 7 8 20 15 29 15 9 0 23 9 31
20 8 11 22 20 32 20 10 0 18 5 18 10 0 6 8 10 18 10 10 0 24 9 32 20 8 11 20
20 28 20 18 0 62 46 62 65 0 8 5 15 10 15 6 0 10 14 10 30 0 17 5 30 10 30 6
0 10 18 10 39 0 22 4 43 10 46 5 3 10 21 10 40 0 19 4 37 10 40 6 3 10 21 10
39 0 19 6 39 14 45 7 6 11 22 8 36 -2 14 2 32 9 41 7 9 12 32 10 51 -2 22 4
41 14 53 11 12 16 29 13 45 -3 15 0 32 9 40 8 9 13 31 11 57 -1 25 3 43 10 46
7 2 12 23 12 52 0 27 4 52 10 55 6 3 10 30 10 60 0 30 4 57 10 60 5 3 10 26
10 50 0 24 4 47 10 50 6 3 10 28 10 56 0 27 5 49 10 49 6 0 10 27 10 60 0 33
4 60 10 60 6 0 10 26 10 59 0 33 4 63 10 66 5 3 10 26 10 50 0 24 4 47 10 50
6 3 10 33 10 66 0 33 4 59 10 59 6 0 10 27 10 60 0 33 4 60 10 60 6 0 10 26
10 59 0 33 4 63 10 66 6 3 10 26 10 50 0 24 5 47 10 50 6 3 10 33 10 66 0 33
4 59 10 59 6 0 10 27 10 60 0 33 4 60 10 60 6 0 10 22 10 49 0 28 5 53 10 56
6 3 10 30 10 60 0 30 4 57 10 60 5 3 10 25 10 49 0 23 5 47 12 54 7 7 11 31 9
56 -2 31 2 45 12 49 12 4 14 16 10 47 -4 30 -1 45 12 60 13 14 16 29 12 54 -4
24 -1 39 9 47 8 7 14 29 14 55 0 23 4 46 10 49 6 3 10 26 10 50 0 24 5 47 10
50 6 3 10 28 10 56 0 27 5 49 10 49 6 0 10 23 10 50 0 28 5 50 10 50 6 0 10
18 10 39 0 22 5 43 10 46 6 3 10 21 10 40 0 19 5 37 10 40 6 3 10 14 10 24 0
31 48 115 88 154 40 39 202 127 233 127 10 0 21 5 24 10 3 6 17 10 30 10 13 0
27 5 30 10 3 6 19 10 36 10 16 0 29 5 29 10 0 6 14 10 30 10 17 0 30 5 30 10
0 6 18 10 39 10 22 0 43 5 46 10 3 6 17 10 30 10 13 0 27 5 30 10 3 6 21 10
40 10 19 0 37 5 40 10 3 6 21 10 40 10 19 0 37 5 40 10 3 6 21 10 39 10 19 0
39 7 46 15 8 9 29 15 56 15 23 0 46 4 49 10 3 6 24 10 46 10 21 0 39 5 39 10
0 6 22 10 49 10 28 0 53 5 56 10 3 6 26 10 50 10 24 0 47 5 50 10 3 6 30 10
60 10 30 0 57 5 60 10 3 6 28 10 56 10 27 0 49 5 49 10 0 6 26 10 59 10 33 0
63 5 66 10 3 5 26 10 50 10 24 0 47 5 50 10 3 6 30 10 60 10 30 0 57 5 60 10
3 6 33 10 66 10 33 0 59 4 59 10 0 6 30 10 69 10 39 0 73 5 76 10 3 6 35 10
70 10 35 0 67 4 70 10 3 6 37 10 76 10 39 0 69 4 69 10 0 6 36 10 89 10 50 0
93 5 96 10 3 6 44 10 90 10 46 0 87 5 90 10 4 6 53 10 115 10 62 0 111 4 115
10 8 14 732 14 740 0 3 -6 42 -10 86 -10 46 0 79 -4 79 -10 0 -6 26 -10 59
-10 33 0 63 -4 66 -10 3 -5 26 -10 50 -10 24 0 47 -4 50 -10 3 -5 26 -10 50
-10 24 0 47 -5 50 -10 3 -6 21 -10 40 -10 19 0 37 -4 40 -10 3 -5 28 -10 56
-10 27 0 49 -4 49 -10 0 -5 14 -10 30 -10 17 0 30 -4 30 -10 0 -5 18 -10 39
-10 22 0 43 -5 46 -10 3 -6 21 -10 40 -10 19 0 37 -5 40 -10 3 -6 17 -10 30
-10 13 0 27 -4 30 -10 3 -5 17 -10 30 -10 13 0 27 -4 30 -10 3 -5 17 -10 30
-10 13 0 27 -4 30 -10 3 -5 17 -10 30 -10 13 0 27 -4 30 -10 3 -5 19 -10 36
-10 16 0 29 -4 29 -10 0 -5 11 -10 23 -10 28 0 87 -28 87 -41 0 -5 11 -9 25
-9 13 0 40 -9 60 -20 20 -11 41 -20 48 -20 16 0 222 -103 245 -122 9 -8 33
-22 52 -31 19 -8 46 -27 59 -41 14 -14 29 -26 36 -26 13 0 95 -85 113 -117 15
-27 16 -53 2 -53 -5 0 -10 -9 -10 -20 0 -13 -7 -20 -18 -20 -10 0 -24 -9 -32
-20 -8 -11 -22 -20 -32 -20 -10 0 -18 -4 -18 -10 0 -5 -13 -10 -30 -10 -16 0
-30 -4 -30 -10 0 -5 -13 -10 -29 -10 -17 0 -33 -4 -36 -10 -3 -5 -17 -10 -30
-10 -13 0 -27 -5 -30 -10 -3 -6 -26 -10 -50 -10 -24 0 -47 -4 -50 -10 -3 -6
-21 -10 -40 -10 -19 0 -37 -5 -40 -10 -3 -5 -28 -10 -56 -10 -27 0 -49 -4 -49
-10 0 -6 -26 -10 -59 -10 -33 0 -63 -4 -66 -10 -3 -5 -26 -10 -50 -10 -24 0
-47 -4 -50 -10 -3 -5 -35 -10 -69 -10 -44 0 -67 -5 -76 -15 -8 -10 -31 -15
-66 -15 -29 0 -56 -4 -59 -10 -3 -5 -33 -10 -65 -10 -32 0 -62 -4 -65 -10 -3
-5 -35 -10 -70 -10 -35 0 -67 -4 -70 -10 -3 -5 -30 -10 -60 -10 -30 0 -57 -4
-60 -10 -3 -5 -37 -10 -76 -10 -39 0 -69 -4 -69 -10 0 -6 -26 -10 -59 -10 -33
0 -63 -5 -66 -10 -3 -5 -30 -10 -60 -10 -30 0 -57 -4 -60 -10 -3 -5 -30 -10
-60 -10 -30 0 -57 -4 -60 -10 -3 -5 -28 -10 -56 -10 -27 0 -49 -4 -49 -10 0
-6 -26 -10 -59 -10 -33 0 -63 -4 -66 -10 -3 -5 -30 -10 -60 -10 -30 0 -57 -4
-60 -10 -3 -5 -26 -10 -50 -10 -24 0 -47 -5 -50 -10 -3 -6 -28 -10 -56 -10
-27 0 -49 -4 -49 -10 0 -5 -22 -10 -50 -10 -27 0 -50 -4 -50 -10 0 -5 -22 -10
-49 -10 -28 0 -53 -4 -56 -10 -3 -5 -26 -10 -50 -10 -24 0 -47 -4 -50 -10 -3
-5 -26 -10 -50 -10 -24 0 -47 -4 -50 -10 -3 -5 -24 -10 -46 -10 -21 0 -39 -4
-39 -10 0 -5 -22 -10 -49 -10 -28 0 -53 -5 -56 -10 -3 -6 -21 -10 -39 -10 -19
0 -39 -7 -46 -15 -8 -9 -29 -15 -56 -15 -23 0 -46 -4 -49 -10 -3 -5 -21 -10
-40 -10 -19 0 -37 -4 -40 -10 -3 -6 -21 -10 -40 -10 -19 0 -37 -5 -40 -10 -3
-6 -17 -10 -30 -10 -13 0 -27 -4 -30 -10 -3 -5 -24 -10 -46 -10 -21 0 -39 -4
-39 -10 0 -5 -18 -10 -40 -10 -22 0 -40 -4 -40 -10 0 -5 -18 -10 -39 -10 -22
0 -43 -4 -46 -10 -3 -5 -17 -10 -30 -10 -13 0 -27 -4 -30 -10 -3 -5 -21 -10
-40 -10 -19 0 -37 -4 -40 -10 -3 -6 -17 -10 -30 -10 -13 0 -27 -5 -30 -10 -3
-6 -17 -10 -30 -10 -13 0 -27 -4 -30 -10 -3 -5 -24 -10 -46 -10 -21 0 -39 -4
-39 -10 0 -5 -13 -10 -30 -10 -16 0 -30 -4 -30 -10 0 -5 -13 -10 -29 -10 -17
0 -33 -4 -36 -10 -3 -5 -17 -10 -30 -10 -13 0 -27 -4 -30 -10 -3 -5 -17 -10
-30 -10 -13 0 -27 -4 -30 -10 -3 -5 -15 -10 -25 -10 -11 0 -35 -9 -55 -20 -20
-11 -44 -20 -55 -20 -10 0 -22 -4 -25 -10 -3 -5 -17 -10 -29 -10 -13 0 -29 -7
-36 -15 -7 -8 -21 -15 -31 -15 -10 0 -34 -9 -54 -20 -20 -11 -44 -20 -55 -20
-10 0 -22 -4 -25 -10 -3 -5 -19 -10 -36 -10 -16 0 -29 -4 -29 -10 0 -5 -9 -10
-20 -10 -11 0 -20 -4 -20 -10 0 -5 -9 -10 -20 -10 -11 0 -20 -4 -20 -10 0 -5
-9 -10 -20 -10 -11 0 -20 -4 -20 -10 0 -5 -8 -10 -17 -10 -9 0 -25 -7 -35 -17
-10 -9 -28 -21 -40 -27 -13 -6 -25 -20 -27 -31 -2 -11 -12 -26 -22 -33 -11 -8
-19 -25 -19 -43 0 -16 -4 -29 -10 -29 -5 0 -10 -13 -10 -29 0 -16 -6 -31 -12
-33 -7 -3 -11 -18 -10 -37 1 -19 -3 -40 -10 -48 -6 -8 -11 -36 -9 -62 2 -34
-2 -51 -14 -61 -12 -10 -16 -27 -14 -62 2 -27 -2 -53 -9 -60 -7 -7 -12 -39
-12 -74 0 -35 -4 -66 -10 -69 -5 -3 -10 -33 -10 -66 0 -33 -4 -59 -10 -59 -6
0 -10 -26 -10 -59 0 -33 -4 -63 -10 -66 -5 -3 -10 -26 -10 -50 0 -24 -4 -47
-10 -50 -5 -3 -10 -33 -10 -66 0 -33 -4 -59 -10 -59 -5 0 -10 -22 -10 -50 0
-27 -4 -50 -10 -50 -5 0 -10 -22 -10 -50 0 -27 -4 -50 -10 -50 -5 0 -10 -22
-10 -49 0 -28 -4 -53 -10 -56 -5 -3 -10 -26 -10 -50 0 -24 -5 -47 -10 -50 -6
-3 -10 -24 -10 -46 0 -21 -4 -39 -10 -39 -5 0 -10 -22 -10 -50 0 -27 -4 -50
-10 -50 -5 0 -10 -22 -10 -49 0 -28 -4 -53 -10 -56 -5 -3 -10 -21 -10 -40 0
-19 -4 -37 -10 -40 -5 -3 -10 -21 -10 -40 0 -19 -5 -37 -10 -40 -6 -3 -10 -26
-10 -50 0 -24 -4 -47 -10 -50 -6 -3 -10 -21 -10 -40 0 -19 -5 -37 -10 -40 -6
-3 -10 -23 -10 -45 0 -23 -5 -40 -14 -43 -10 -4 -13 -17 -9 -47 4 -30 1 -45
-12 -60 -11 -12 -15 -28 -12 -42 4 -13 0 -29 -10 -40 -9 -10 -14 -28 -11 -43
3 -14 -1 -30 -8 -36 -8 -6 -14 -26 -14 -45 0 -18 -5 -36 -10 -39 -6 -3 -10
-21 -10 -40 0 -19 -4 -37 -10 -40 -5 -3 -10 -24 -10 -46 0 -21 -4 -39 -10 -39
-5 0 -10 -18 -10 -40 0 -22 -4 -40 -10 -40 -5 0 -10 -13 -10 -30 0 -16 -4 -30
-10 -30 -5 0 -10 -18 -10 -39 0 -22 -5 -43 -10 -46 -6 -3 -10 -21 -10 -40 0
-19 -4 -37 -10 -40 -6 -3 -10 -21 -10 -40 0 -19 -5 -37 -10 -40 -6 -3 -10 -17
-10 -30 0 -13 -4 -27 -10 -30 -6 -3 -10 -24 -10 -46 0 -21 -4 -39 -10 -39 -5
0 -10 -18 -10 -40 0 -22 -4 -40 -10 -40 -5 0 -10 -13 -10 -30 0 -16 -4 -30
-10 -30 -5 0 -10 -18 -10 -39 0 -22 -4 -43 -10 -46 -5 -3 -10 -17 -10 -30 0
-13 -4 -27 -10 -30 -6 -3 -10 -21 -10 -40 0 -19 -5 -37 -10 -40 -6 -3 -10 -17
-10 -29 0 -13 -6 -29 -14 -35 -8 -7 -12 -20 -9 -30 2 -9 -3 -23 -11 -30 -10
-9 -14 -22 -10 -38 4 -15 0 -30 -11 -43 -10 -11 -15 -26 -12 -34 3 -8 -1 -20
-9 -26 -8 -7 -14 -25 -14 -41 0 -16 -4 -29 -10 -29 -5 0 -10 -13 -10 -30 0
-16 -4 -30 -10 -30 -5 0 -10 -13 -10 -30 0 -16 -4 -30 -10 -30 -5 0 -10 -13
-10 -29 0 -17 -5 -33 -10 -36 -6 -3 -10 -17 -10 -30 0 -13 -4 -27 -10 -30 -6
-3 -10 -17 -10 -30 0 -13 -5 -27 -10 -30 -6 -3 -10 -17 -10 -30 0 -13 -4 -27
-10 -30 -6 -3 -10 -17 -10 -30 0 -13 -4 -27 -10 -30 -5 -3 -10 -19 -10 -36 0
-16 -4 -29 -10 -29 -5 0 -10 -9 -10 -20 0 -11 -4 -20 -10 -20 -5 0 -10 -13
-10 -30 0 -16 -4 -30 -10 -30 -5 0 -10 -13 -10 -30 0 -16 -4 -30 -10 -30 -5 0
-10 -9 -10 -20 0 -11 -4 -20 -10 -20 -5 0 -10 -13 -10 -29 0 -17 -4 -33 -10
-36 -5 -3 -10 -15 -10 -25 0 -11 -9 -35 -20 -55 -11 -20 -20 -44 -20 -54 0
-10 -6 -24 -14 -31 -8 -6 -12 -18 -9 -26 3 -8 -3 -24 -12 -34 -10 -11 -14 -20
-10 -20 4 0 0 -9 -10 -20 -9 -10 -15 -26 -12 -34 4 -9 2 -18 -3 -21 -13 -8
-40 -66 -40 -86 0 -10 -4 -21 -10 -24 -5 -3 -10 -19 -10 -36 0 -16 -4 -29 -10
-29 -5 0 -10 -9 -10 -20 0 -11 -4 -20 -10 -20 -5 0 -10 -13 -10 -30 0 -16 -4
-30 -10 -30 -5 0 -10 -9 -10 -20 0 -11 -4 -20 -10 -20 -5 0 -10 -9 -10 -20 0
-11 -4 -20 -10 -20 -5 0 -10 -13 -10 -30 0 -16 -4 -30 -10 -30 -5 0 -10 -9
-10 -19 0 -11 -5 -23 -10 -26 -6 -3 -10 -15 -10 -25 0 -11 -9 -35 -20 -55 -11
-20 -20 -42 -20 -49 0 -8 -14 -40 -30 -71 -17 -31 -30 -63 -30 -69 0 -15 -41
-99 -59 -119 -6 -8 -9 -21 -6 -29 3 -8 -1 -21 -9 -28 -9 -7 -14 -16 -11 -20 3
-4 -2 -13 -10 -20 -8 -7 -15 -21 -15 -31 0 -11 -4 -19 -10 -19 -5 0 -10 -13
-10 -30 0 -16 -4 -30 -10 -30 -5 0 -10 -9 -10 -20 0 -11 -4 -20 -10 -20 -5 0
-10 -9 -10 -20 0 -11 -4 -20 -10 -20 -5 0 -10 -9 -10 -20 0 -11 -4 -20 -10
-20 -5 0 -10 -11 -10 -24 0 -13 -18 -58 -40 -101 -22 -43 -40 -83 -40 -90 0
-7 -18 -47 -40 -90 -22 -43 -40 -84 -40 -91 0 -8 -4 -14 -10 -14 -5 0 -10 -9
-10 -20 0 -11 -4 -20 -10 -20 -5 0 -10 -9 -10 -20 0 -11 -4 -20 -10 -20 -5 0
-10 -9 -10 -20 0 -11 -4 -20 -10 -20 -5 0 -10 -9 -10 -20 0 -11 -4 -20 -10
-20 -5 0 -10 -9 -10 -20 0 -11 -7 -23 -15 -26 -10 -4 -13 -14 -9 -30 4 -17 1
-26 -10 -30 -9 -3 -16 -15 -16 -25 0 -10 -4 -19 -10 -19 -5 0 -10 -6 -10 -13
0 -17 -28 -75 -40 -82 -5 -3 -36 -61 -70 -130 -34 -69 -66 -127 -71 -131 -5
-3 -18 -24 -29 -48 -10 -23 -26 -49 -35 -56 -8 -7 -15 -18 -15 -25 0 -6 -9
-20 -20 -30 -11 -10 -20 -23 -20 -30 0 -6 -11 -22 -25 -35 -13 -12 -22 -26
-20 -30 2 -4 -9 -20 -26 -36 -31 -30 -59 -77 -59 -101 0 -7 -4 -13 -10 -13 -5
0 -10 -24 -9 -52 1 -59 23 -108 57 -123 12 -5 22 -13 22 -17 0 -10 167 -10
172 0 5 12 129 72 149 72 10 0 21 5 24 10 3 6 19 10 36 10 16 0 29 5 29 10 0
6 14 10 30 10 17 0 30 5 30 10 0 6 30 10 69 10 49 0 72 4 81 15 9 11 35 15
106 15 51 0 96 4 99 10 3 6 28 10 56 10 27 0 49 5 49 10 0 6 18 10 40 10 22 0
40 5 40 10 0 6 18 10 39 10 22 0 43 5 46 10 3 6 21 10 40 10 19 0 37 5 40 10
3 6 17 10 30 10 13 0 27 5 30 10 3 6 17 10 30 10 13 0 27 4 30 10 3 5 17 10
30 10 13 0 27 4 30 10 3 5 24 10 46 10 21 0 39 5 39 10 0 6 14 10 30 10 17 0
30 5 30 10 0 6 18 10 40 10 22 0 40 5 40 10 0 6 13 10 29 10 17 0 33 5 36 10
3 6 21 10 40 10 19 0 37 5 40 10 3 6 17 10 30 10 13 0 27 5 30 10 3 6 21 10
40 10 19 0 37 5 40 10 3 6 17 10 30 10 13 0 27 5 30 10 3 6 24 10 46 10 21 0
39 5 39 10 0 6 14 10 30 10 17 0 30 5 30 10 0 6 13 10 29 10 17 0 33 5 36 10
3 6 17 10 30 10 13 0 26 4 30 9 8 14 65 41 86 41 10 0 21 4 24 10 3 5 15 10
25 10 11 0 35 9 55 20 20 11 42 20 50 20 8 0 30 9 50 20 20 11 42 20 50 20 8
0 30 9 50 20 20 11 42 20 50 20 8 0 15 5 15 10 0 6 14 10 30 10 17 0 30 5 30
10 0 6 9 10 20 10 11 0 20 5 20 10 0 6 9 10 20 10 11 0 20 5 20 10 0 6 6 10
12 10 7 0 82 35 166 78 180 91 187 94 209 114 10 8 44 27 75 42 32 15 60 32
63 37 4 5 25 18 49 29 23 10 49 26 56 35 7 8 20 15 29 15 9 0 23 9 31 20 8 11
22 20 32 20 10 0 18 5 18 10 0 6 8 10 18 10 10 0 24 9 32 20 8 11 21 20 30 20
9 0 22 9 30 20 8 11 22 20 30 20 9 0 29 14 45 30 16 17 34 30 40 30 6 0 22 11
35 25 13 14 29 25 35 25 6 0 24 14 40 30 16 17 34 30 40 30 6 0 24 13 40 30
16 16 34 30 40 30 6 0 24 13 40 30 16 16 34 30 40 30 6 0 29 18 50 40 21 22
44 40 50 40 6 0 33 23 60 50 27 28 54 50 60 50 6 0 40 29 75 65 35 36 69 65
75 65 6 0 46 36 90 80 44 44 84 80 90 80 6 0 42 32 80 70 38 39 74 70 80 70 6
0 35 25 65 55 30 30 59 55 65 55 6 0 29 18 50 40 21 22 44 40 50 40 6 0 24 14
40 30 16 17 34 30 40 30 6 0 24 13 40 30 16 16 35 30 43 30 8 0 27 14 42 30
15 17 34 30 42 30 7 0 20 9 28 20 8 11 21 20 30 20 8 0 24 11 34 25 10 14 26
25 35 25 9 0 23 9 31 20 8 11 22 20 32 20 10 0 18 5 18 10 0 6 8 10 18 10 10
0 24 9 32 20 8 11 22 20 32 20 10 0 18 5 18 10 0 6 6 10 13 10 7 0 94 40 192
90 98 49 187 90 196 90 10 0 21 4 24 10 3 5 19 10 36 10 16 0 29 5 29 10 0 6
9 10 20 10 11 0 20 5 20 10 0 6 12 10 26 10 14 0 32 7 40 15 9 8 26 15 39 15
13 0 27 4 30 10 3 5 21 10 40 10 19 0 37 5 40 10 3 6 17 10 30 10 13 0 27 5
30 10 3 6 21 10 40 10 19 0 37 4 40 10 3 5 21 10 40 10 19 0 37 5 40 10 3 6
26 10 50 10 24 0 47 5 50 10 3 6 28 10 56 10 27 0 49 5 49 10 0 6 22 10 49 10
28 0 53 5 56 10 3 6 30 10 60 10 30 0 57 4 60 10 3 5 30 10 60 10 30 0 57 5
60 10 3 6 37 10 76 10 39 0 69 4 69 10 0 6 33 10 79 10 44 0 83 4 86 10 3 6
39 10 80 10 41 0 77 5 80 10 3 6 50 10 105 10 55 0 102 4 105 10 3 6 52 10
110 10 58 0 107 4 110 10 8 14 725 14 725 0 0 -6 40 -10 99 -10 56 0 103 -4
106 -10 3 -5 46 -10 96 -10 53 0 89 -4 89 -10 0 -6 33 -10 79 -10 44 0 83 -4
86 -10 3 -6 39 -10 80 -10 41 0 77 -4 80 -10 3 -5 33 -10 66 -10 33 0 59 -4
59 -10 0 -6 30 -10 69 -10 39 0 73 -4 76 -10 3 -5 30 -10 60 -10 30 0 57 -4
60 -10 3 -5 21 -10 40 -10 19 0 37 -5 40 -10 3 -6 27 -10 53 -10 36 0 51 5 62
20 8 11 20 20 28 20 17 0 42 25 42 42 0 8 9 20 20 28 11 8 20 22 20 32 0 10 5
18 10 18 14 0 12 46 -2 73 -7 12 -37 47 -66 78 -52 54 -142 214 -142 250 0 10
-4 21 -10 24 -5 3 -10 17 -10 29 0 13 -7 29 -15 36 -9 7 -13 20 -10 28 3 8 -2
23 -11 33 -11 13 -15 28 -11 48 5 21 2 31 -10 35 -12 5 -14 16 -11 51 4 31 1
48 -8 56 -8 6 -14 30 -14 55 0 23 -4 46 -10 49 -5 3 -10 30 -10 60 0 30 -4 57
-10 60 -5 3 -10 37 -10 76 0 39 -4 69 -10 69 -6 0 -10 33 -10 79 0 44 -4 83
-10 86 -6 4 -10 60 -10 136 0 79 -4 129 -10 129 -7 0 -10 160 -10 460 0 300 3
460 10 460 6 0 10 43 10 109 0 63 4 112 10 116 6 3 10 39 10 80 0 41 5 77 10
80 6 3 10 33 10 66 0 33 4 59 10 59 6 0 10 22 10 49 0 28 5 53 10 56 6 3 10
21 10 39 0 19 6 39 14 45 7 6 11 22 8 36 -3 16 2 33 13 45 9 10 14 24 10 30
-4 6 1 20 10 30 11 12 16 29 13 45 -3 14 1 30 8 36 8 6 14 22 14 35 0 12 5 26
10 29 6 3 10 19 10 36 0 16 5 29 10 29 6 0 10 18 10 40 0 22 5 40 10 40 6 0
10 14 10 30 0 17 5 30 10 30 6 0 10 14 10 30 0 17 5 30 10 30 6 0 10 13 10 29
0 17 5 33 10 36 6 3 10 17 10 30 0 13 5 27 10 30 6 3 10 15 10 25 0 11 9 35
20 55 11 20 20 44 20 55 0 10 5 22 10 25 6 3 10 19 10 36 0 16 5 29 10 29 6 0
10 9 10 20 0 11 5 20 10 20 6 0 10 14 10 30 0 17 5 30 10 30 6 0 10 14 10 30
0 17 5 30 10 30 6 0 10 9 10 20 0 11 5 20 10 20 6 0 10 10 10 23 0 24 45 123
60 132 5 3 7 12 3 20 -3 9 0 22 7 31 18 21 60 105 60 119 0 7 23 56 50 110 28
54 50 104 50 112 0 7 5 13 10 13 6 0 10 9 10 20 0 11 5 20 10 20 6 0 10 9 10
20 0 11 5 20 10 20 6 0 10 9 10 20 0 11 5 20 10 20 6 0 10 9 10 20 0 11 5 20
10 20 6 0 10 9 10 20 0 11 5 20 10 20 6 0 10 9 10 20 0 11 5 20 10 20 6 0 10
6 10 13 0 21 45 106 71 133 12 13 19 24 14 24 -4 0 -1 8 8 18 10 10 15 21 12
24 -3 3 1 11 10 18 8 7 15 18 15 25 0 6 9 20 20 30 11 10 20 24 20 30 0 7 7
18 15 25 9 7 24 32 35 54 10 23 30 52 44 65 14 14 26 30 26 36 0 7 9 20 20 30
11 10 20 23 20 30 0 7 9 20 20 30 11 10 20 23 20 30 0 6 18 29 40 50 22 21 40
44 40 49 0 15 262 276 277 276 6 0 13 6 16 13 4 9 7 9 18 0 10 -10 9 -16 -4
-31 -9 -10 -17 -26 -17 -35 0 -9 -4 -17 -10 -17 -5 0 -10 -13 -10 -30 0 -16
-4 -30 -10 -30 -5 0 -10 -9 -10 -20 0 -11 -4 -20 -10 -20 -5 0 -10 -13 -10
-30 0 -16 -4 -30 -10 -30 -5 0 -10 -9 -10 -20 0 -11 -4 -20 -10 -20 -5 0 -10
-11 -10 -25 0 -13 -9 -40 -20 -60 -11 -20 -20 -42 -20 -50 0 -8 -9 -30 -20
-50 -11 -20 -20 -42 -20 -50 0 -8 -9 -30 -20 -50 -11 -20 -20 -44 -20 -55 0
-10 -4 -22 -10 -25 -5 -3 -10 -15 -10 -26 0 -10 -4 -19 -10 -19 -5 0 -10 -13
-10 -30 0 -16 -4 -30 -10 -30 -5 0 -10 -9 -10 -20 0 -11 -4 -20 -10 -20 -5 0
-10 -13 -10 -29 0 -16 -6 -34 -14 -41 -8 -6 -12 -18 -9 -26 3 -8 -2 -23 -11
-33 -9 -10 -14 -20 -11 -23 3 -3 -1 -11 -10 -18 -8 -7 -15 -23 -15 -36 0 -12
-4 -26 -10 -29 -5 -3 -10 -17 -10 -30 0 -13 -5 -27 -10 -30 -6 -3 -10 -17 -10
-30 0 -13 -4 -27 -10 -30 -5 -3 -10 -17 -10 -30 0 -13 -4 -27 -10 -30 -6 -3
-10 -17 -10 -30 0 -13 -4 -27 -10 -30 -5 -3 -10 -24 -10 -46 0 -21 -4 -39 -10
-39 -5 0 -10 -18 -10 -40 0 -22 -4 -40 -10 -40 -6 0 -10 -30 -10 -70 0 -40 -4
-70 -10 -70 -6 0 -10 -121 -10 -344 0 -219 4 -347 10 -351 6 -3 10 -42 10 -86
0 -46 4 -79 10 -79 6 0 10 -13 10 -30 0 -16 5 -30 10 -30 6 0 10 -8 10 -18 0
-18 52 -73 80 -86 8 -3 29 -15 45 -25 17 -11 47 -20 68 -20 20 -1 37 -5 37
-11 0 -6 26 -10 59 -10 33 0 63 -4 66 -10 3 -6 44 -10 90 -10 46 0 87 -4 90
-10 3 -5 46 -10 96 -10 53 0 89 -4 89 -10 0 -6 33 -10 79 -10 44 0 83 -4 86
-10 3 -5 30 -10 60 -10 30 0 57 -5 60 -10 3 -6 33 -10 66 -10 33 0 59 -4 59
-10 0 -5 18 -10 40 -10 22 0 40 -4 40 -10 0 -5 22 -10 49 -10 28 0 53 -4 56
-10 3 -5 17 -10 30 -10 13 0 27 -4 30 -10 3 -5 17 -10 30 -10 13 0 27 -5 30
-10 3 -5 14 -10 24 -10 10 0 53 -18 96 -40 43 -22 84 -40 91 -40 8 0 14 -4 14
-10 0 -5 9 -10 20 -10 11 0 20 -4 20 -10 0 -5 8 -10 18 -10 10 0 24 -9 32 -20
8 -11 20 -20 27 -20 7 0 28 -16 47 -35 20 -19 40 -35 45 -35 14 0 287 -271
284 -281 -2 -4 17 -27 42 -51 25 -24 45 -49 45 -56 0 -8 13 -27 30 -42 17 -15
30 -33 30 -40 0 -7 13 -25 30 -40 17 -15 30 -34 30 -42 0 -7 9 -20 20 -28 11
-8 20 -21 20 -30 0 -9 9 -22 20 -30 11 -8 20 -22 20 -31 0 -9 9 -24 20 -34 11
-10 20 -23 20 -30 0 -6 14 -24 30 -40 17 -16 30 -34 30 -41 0 -6 7 -17 15 -24
8 -7 13 -16 10 -20 -2 -4 7 -18 20 -30 14 -13 25 -29 25 -35 0 -7 9 -20 20
-30 11 -10 20 -23 20 -30 0 -7 9 -20 20 -30 11 -10 20 -23 20 -30 0 -7 9 -20
20 -30 11 -10 20 -23 20 -30 0 -6 14 -24 30 -40 17 -16 30 -34 30 -40 0 -6 14
-24 30 -40 17 -16 30 -34 30 -40 0 -6 18 -29 40 -50 22 -21 40 -44 40 -50 0
-6 29 -40 65 -75 36 -35 65 -69 65 -75 0 -6 45 -55 100 -110 55 -55 100 -104
100 -110 0 -13 482 -495 495 -495 6 0 62 -52 125 -115 63 -63 119 -115 125
-115 6 0 46 -36 90 -80 44 -44 84 -80 90 -80 6 0 37 -27 70 -60 33 -33 64 -60
70 -60 6 0 35 -25 65 -55 30 -30 59 -55 65 -55 6 0 29 -18 50 -40 21 -22 44
-40 50 -40 6 0 33 -22 60 -50 27 -27 54 -50 60 -50 6 0 24 -14 40 -30 16 -16
34 -30 40 -30 6 0 29 -18 50 -40 21 -22 44 -40 50 -40 6 0 24 -14 40 -30 16
-17 34 -30 40 -30 6 0 26 -16 45 -35 19 -19 39 -35 45 -35 7 0 20 -9 30 -20
10 -11 25 -20 33 -20 7 0 27 -13 42 -30 15 -16 34 -30 42 -30 7 0 20 -9 28
-20 8 -11 21 -20 28 -20 8 0 27 -13 42 -30 15 -16 35 -30 44 -30 9 0 16 -4 16
-9 0 -5 15 -16 34 -25 18 -8 39 -22 46 -31 7 -8 18 -15 25 -15 6 0 20 -9 30
-20 10 -11 23 -20 30 -20 7 0 20 -9 30 -20 10 -11 23 -20 30 -20 7 0 20 -9 31
-21 10 -11 37 -29 61 -40 23 -10 45 -23 48 -29 3 -6 26 -19 50 -30 24 -11 46
-24 50 -30 3 -5 35 -23 70 -40 35 -17 67 -35 70 -40 7 -12 65 -40 82 -40 7 0
13 -4 13 -10 0 -5 9 -10 20 -10 11 0 20 -4 20 -10 0 -5 9 -10 20 -10 11 0 20
-4 20 -10 0 -5 9 -10 20 -10 11 0 20 -4 20 -10 0 -5 11 -10 25 -10 13 0 40 -9
60 -20 20 -11 42 -20 49 -20 17 0 74 -28 81 -41 4 -5 17 -9 30 -9 13 0 27 -5
30 -10 3 -6 17 -10 30 -10 13 0 27 -4 30 -10 3 -5 15 -10 25 -10 11 0 35 -9
55 -20 20 -11 42 -20 49 -20 8 0 40 -13 71 -30 31 -16 68 -30 81 -30 13 0 24
-4 24 -10 0 -5 9 -10 20 -10 11 0 20 -4 20 -10 0 -5 9 -10 20 -10 11 0 20 -4
20 -10 0 -5 9 -10 20 -10 11 0 20 -4 20 -10 0 -5 6 -10 14 -10 8 0 40 -13 71
-30 31 -16 65 -30 75 -30 11 0 22 -4 25 -10 3 -5 17 -10 30 -10 13 0 27 -4 30
-10 3 -5 27 -10 53 -10 41 0 49 3 60 28 8 17 9 28 2 30 -6 2 -10 38 -10 83 0
46 -4 79 -10 79 -5 0 -10 23 -10 50 0 28 -4 50 -10 50 -5 0 -10 18 -10 39 0
22 -4 43 -10 46 -5 3 -10 17 -10 30 0 13 -4 27 -10 30 -5 3 -10 21 -10 39 0
19 -6 39 -14 46 -8 6 -12 18 -9 26 3 8 -2 23 -12 34 -9 10 -14 24 -10 30 4 6
-1 20 -10 30 -9 10 -15 29 -13 43 1 13 -3 32 -11 40 -7 9 -11 23 -8 31 3 8 -1
20 -9 26 -8 7 -14 30 -14 51 0 22 -4 39 -10 39 -5 0 -10 14 -10 30 0 17 -4 30
-10 30 -5 0 -10 18 -10 40 0 22 -4 40 -10 40 -5 0 -10 13 -10 29 0 17 -4 33
-10 36 -5 3 -10 21 -10 40 0 19 -4 37 -10 40 -5 3 -10 21 -10 40 0 19 -4 37
-10 40 -5 3 -10 21 -10 40 0 19 -4 37 -10 40 -5 3 -10 24 -10 46 0 21 -4 39
-10 39 -5 0 -10 18 -10 40 0 22 -4 40 -10 40 -5 0 -10 18 -10 40 0 22 -4 40
-10 40 -5 0 -10 18 -10 39 0 22 -4 43 -10 46 -5 3 -10 21 -10 40 0 19 -4 37
-10 40 -5 3 -10 21 -10 40 0 19 -4 37 -10 40 -5 3 -10 28 -10 56 0 27 -4 49
-10 49 -5 0 -10 18 -10 40 0 22 -4 40 -10 40 -5 0 -10 22 -10 49 0 29 -6 53
-14 60 -7 6 -11 22 -8 36 3 16 -2 33 -13 45 -13 14 -16 29 -12 54 4 24 1 39
-9 47 -10 8 -14 26 -13 51 2 21 -2 43 -9 50 -7 7 -12 31 -12 54 0 24 -4 46
-10 49 -5 3 -10 28 -10 56 0 27 -4 49 -10 49 -5 0 -10 22 -10 49 0 28 -4 53
-10 56 -5 3 -10 26 -10 50 0 24 -4 47 -10 50 -5 3 -10 30 -10 60 0 30 -4 57
-10 60 -5 3 -10 28 -10 56 0 27 -4 49 -10 49 -6 0 -10 27 -10 60 0 33 -4 60
-10 60 -6 0 -10 26 -10 59 0 33 -4 63 -10 66 -5 3 -10 30 -10 60 0 30 -4 57
-10 60 -5 3 -10 37 -10 76 0 39 -4 69 -10 69 -6 0 -10 26 -10 59 0 33 -4 63
-10 66 -5 3 -10 35 -10 70 0 35 -4 67 -10 70 -5 3 -10 37 -10 76 0 39 -4 69
-10 69 -6 0 -10 33 -10 79 0 44 -4 83 -10 86 -5 3 -10 39 -10 80 0 41 -4 77
-10 80 -5 3 -10 42 -10 86 0 46 -4 79 -10 79 -6 0 -10 39 -10 98 0 60 -4 102
-11 109 -8 8 -11 45 -10 101 2 71 -1 91 -14 102 -14 11 -16 32 -14 126 2 77
-1 117 -10 127 -8 11 -11 59 -10 158 1 97 -3 145 -10 147 -8 3 -11 92 -11 297
0 185 -4 296 -10 300 -5 3 -10 30 -10 60 0 30 5 57 10 60 6 4 10 99 10 254 0
170 4 251 11 258 7 7 11 50 10 118 -2 73 2 111 10 122 9 10 12 44 10 107 -2
75 0 95 14 106 13 11 16 30 14 92 -1 49 2 83 10 91 6 6 11 44 11 89 0 45 4 78
10 78 6 0 10 30 10 69 0 39 5 73 10 76 6 3 10 35 10 70 0 35 5 67 10 70 6 3
10 33 10 66 0 33 4 59 10 59 6 0 10 27 10 60 0 33 4 60 10 60 6 0 10 30 10 69
0 39 4 73 10 76 5 3 10 26 10 50 0 24 4 47 10 50 5 3 10 33 10 66 0 33 4 59
10 59 6 0 10 23 10 50 0 28 5 50 10 50 6 0 10 23 10 50 0 28 5 50 10 50 6 0
10 26 10 59 0 33 5 63 10 66 6 3 10 21 10 40 0 19 5 37 10 40 6 3 10 28 10 56
0 27 5 49 10 49 6 0 10 23 10 50 0 28 5 50 10 50 6 0 10 18 10 39 0 22 5 43
10 46 6 3 10 26 10 50 0 24 5 47 10 50 6 3 10 21 10 39 0 17 5 37 12 44 7 7
11 29 9 50 -1 25 3 43 13 51 10 9 14 22 10 38 -4 15 0 30 10 42 10 11 16 32
14 51 -1 20 3 35 10 38 7 2 12 21 12 43 0 21 5 39 10 39 6 0 10 18 10 39 0 22
5 43 10 46 6 3 10 21 10 40 0 19 5 37 10 40 5 3 10 21 10 40 0 19 5 37 10 40
5 3 10 21 10 40 0 19 5 37 10 40 6 3 10 24 10 46 0 21 5 39 10 39 6 0 10 23
10 50 0 28 5 50 10 50 6 0 10 18 10 40 0 22 5 40 10 40 6 0 10 22 10 49 0 28
5 53 10 56 6 3 10 26 10 50 0 24 5 47 10 50 6 3 10 28 10 56 0 27 5 49 10 49
6 0 10 27 10 60 0 33 4 60 10 60 6 0 10 26 10 59 0 33 5 63 10 66 6 3 10 35
10 70 0 35 5 67 10 70 6 3 10 37 10 76 0 39 4 69 10 69 6 0 10 36 10 88 0 51
5 93 11 99 7 7 11 56 10 138 -1 81 2 132 9 140 15 19 15 482 0 500 -7 8 -10
60 -9 135 1 78 -3 126 -10 133 -6 6 -11 49 -11 103 0 51 -4 96 -10 99 -5 3
-10 37 -10 76 0 39 -4 69 -10 69 -5 0 -10 24 -10 53 0 29 -6 65 -12 80 -12 25
-18 27 -70 27 -32 0 -58 -4 -58 -10 0 -5 -9 -10 -20 -10 -11 0 -20 -4 -20 -10
0 -5 -6 -10 -12 -10 -19 0 -155 -69 -168 -85 -7 -8 -18 -15 -25 -15 -7 0 -18
-7 -25 -15 -7 -9 -32 -25 -55 -35 -23 -10 -48 -26 -55 -35 -7 -8 -18 -15 -25
-15 -6 0 -20 -9 -30 -20 -10 -11 -23 -20 -30 -20 -7 0 -20 -9 -30 -20 -11 -12
-35 -28 -54 -37 -20 -9 -44 -23 -53 -31 -23 -19 -149 -82 -165 -82 -7 0 -13
-4 -13 -10 0 -5 -18 -10 -40 -10 l-40 0 0 69 c0 39 5 73 10 76 6 3 10 24 10
46 0 21 5 39 10 39 6 0 10 14 10 30 0 17 5 30 10 30 6 0 10 14 10 30 0 17 5
30 10 30 6 0 10 16 10 35 0 19 9 50 20 70 11 20 20 44 20 55 0 10 5 22 10 25
6 3 10 17 10 30 0 13 5 27 10 30 6 3 10 17 10 30 0 13 5 27 10 30 6 3 10 17
10 30 0 13 5 27 10 30 6 3 10 19 10 36 0 16 5 29 10 29 6 0 10 14 10 30 0 17
5 30 10 30 6 0 10 13 10 29 0 16 5 31 12 33 7 3 11 19 10 40 -1 21 3 40 12 47
8 7 12 19 9 27 -3 8 2 23 12 34 11 12 16 29 13 45 -3 14 1 30 8 36 8 6 14 30
14 55 0 23 5 46 10 49 6 3 10 30 10 60 0 30 5 57 10 60 6 3 10 37 10 76 0 39
4 69 10 69 6 0 10 118 10 335 0 217 -4 335 -10 335 -6 0 -10 36 -10 89 0 50
-4 93 -10 96 -5 3 -10 42 -10 86 0 46 -4 79 -10 79 -6 0 -10 26 -10 58 0 32
-5 63 -12 70 -7 7 -11 32 -9 58 2 32 -2 51 -15 65 -12 13 -15 28 -11 53 4 24
1 39 -10 47 -9 8 -13 24 -11 41 3 16 -1 33 -9 39 -7 6 -13 31 -13 55 0 23 -4
46 -10 49 -5 3 -10 24 -10 46 0 21 -4 39 -10 39 -5 0 -10 18 -10 40 0 22 -4
40 -10 40 -5 0 -10 18 -10 39 0 22 -4 43 -10 46 -5 3 -10 21 -10 40 0 19 -4
37 -10 40 -5 3 -10 21 -10 40 0 19 -4 37 -10 40 -5 3 -10 17 -10 30 0 13 -4
27 -10 30 -5 3 -10 19 -10 36 0 16 -4 29 -10 29 -5 0 -10 18 -10 40 0 22 -4
40 -10 40 -5 0 -10 14 -10 30 0 17 -4 30 -10 30 -5 0 -10 14 -10 30 0 17 -4
30 -10 30 -5 0 -10 13 -10 29 0 17 -4 33 -10 36 -5 3 -10 15 -10 25 0 11 -9
35 -20 55 -11 20 -20 44 -20 55 0 10 -4 22 -10 25 -5 3 -10 15 -10 26 0 20
-15 51 -38 81 -8 9 -11 22 -7 28 4 6 -1 20 -10 30 -10 11 -15 26 -12 34 4 9 2
18 -3 21 -15 9 -60 108 -60 132 0 13 -4 23 -10 23 -5 0 -10 9 -10 20 0 11 -4
20 -10 20 -5 0 -10 9 -10 20 0 11 -4 20 -10 20 -5 0 -10 14 -10 30 0 17 -4 30
-10 30 -5 0 -10 6 -10 13 0 8 -27 67 -60 132 -33 65 -60 124 -60 130 0 7 -23
56 -50 110 -27 54 -50 104 -50 111 0 6 -7 15 -16 18 -8 3 -13 10 -10 15 3 4
-3 16 -14 26 -22 20 -50 71 -50 92 0 7 -4 13 -10 13 -5 0 -10 9 -10 20 0 11
-4 20 -10 20 -5 0 -10 9 -10 20 0 11 -4 20 -10 20 -5 0 -10 9 -10 20 0 11 -4
20 -10 20 -5 0 -10 9 -10 20 0 11 -4 20 -10 20 -5 0 -10 9 -10 20 0 11 -9 25
-20 32 -11 7 -20 18 -20 24 0 15 -29 72 -41 79 -5 4 -18 25 -29 49 -10 23 -26
49 -35 56 -8 7 -15 18 -15 25 0 7 -7 18 -15 25 -9 7 -24 32 -35 54 -10 23 -28
50 -39 60 -11 10 -19 22 -16 26 2 4 -7 18 -20 30 -14 13 -25 29 -25 35 0 7 -9
20 -20 30 -11 10 -20 23 -20 30 0 7 -9 20 -20 30 -11 10 -20 23 -20 30 0 7 -9
20 -20 30 -11 10 -20 25 -20 34 0 9 -9 22 -20 29 -11 7 -20 20 -20 30 0 10 -9
24 -20 32 -11 8 -20 21 -20 28 0 8 -14 27 -30 42 -17 15 -30 34 -30 42 0 7 -9
20 -20 28 -11 8 -20 20 -20 28 0 7 -11 24 -25 38 -14 14 -23 29 -20 34 3 4
-11 22 -30 39 -19 17 -35 37 -35 46 0 8 -9 20 -20 27 -11 7 -20 20 -20 29 0 9
-13 27 -30 40 -16 13 -30 31 -30 41 0 9 -13 28 -30 41 -16 14 -30 32 -30 39 0
8 -13 27 -30 43 -16 16 -30 34 -30 40 0 6 -13 24 -30 40 -16 16 -30 34 -30 40
0 6 -16 26 -35 45 -19 18 -32 36 -30 40 2 4 -16 26 -40 50 -25 24 -45 49 -45
55 0 6 -18 29 -40 50 -22 21 -40 44 -40 50 0 6 -23 33 -50 60 -27 27 -50 54
-50 60 0 13 -267 276 -297 293 -13 6 -47 12 -76 12 -43 0 -58 -5 -75 -23 -19
-20 -22 -35 -22 -110 0 -51 4 -87 10 -87 6 0 10 -13 10 -30 0 -16 5 -30 10
-30 6 0 10 -9 10 -20 0 -11 5 -20 10 -20 6 0 10 -9 10 -19 0 -11 5 -23 10 -26
6 -3 10 -21 10 -40 0 -19 5 -37 10 -40 6 -3 10 -30 10 -60 0 -30 5 -57 10 -60
6 -4 10 -63 10 -145 0 -82 4 -141 10 -145 6 -4 10 -57 10 -125 0 -68 -4 -121
-10 -125 -6 -4 -10 -80 -10 -195 0 -115 -4 -191 -10 -195 -6 -4 -10 -53 -10
-116 0 -66 -4 -109 -10 -109 -6 0 -10 -36 -10 -89 0 -50 -4 -93 -10 -96 -5 -3
-10 -39 -10 -80 0 -41 -4 -77 -10 -80 -5 -3 -10 -33 -10 -66 0 -33 -4 -59 -10
-59 -6 0 -10 -27 -10 -60 0 -33 -4 -60 -10 -60 -6 0 -10 -26 -10 -59 0 -33 -4
-63 -10 -66 -5 -3 -10 -21 -10 -40 0 -19 -4 -37 -10 -40 -5 -3 -10 -28 -10
-56 0 -27 -4 -49 -10 -49 -5 0 -10 -18 -10 -40 0 -22 -4 -40 -10 -40 -5 0 -10
-13 -10 -30 0 -16 -4 -30 -10 -30 -5 0 -10 -18 -10 -39 0 -22 -5 -43 -10 -46
-5 -3 -10 -17 -10 -29 0 -13 -6 -29 -14 -36 -8 -6 -12 -18 -9 -26 3 -8 -3 -24
-12 -34 -10 -11 -14 -20 -10 -20 4 0 0 -9 -9 -19 -10 -11 -15 -25 -11 -31 4
-6 1 -19 -7 -28 -21 -27 -38 -60 -38 -75 0 -8 -18 -49 -40 -92 -22 -43 -40
-84 -40 -91 0 -8 -4 -14 -10 -14 -5 0 -10 -9 -10 -20 0 -11 -4 -20 -10 -20 -5
0 -10 -9 -10 -20 0 -11 -4 -20 -10 -20 -5 0 -10 -7 -10 -15 0 -9 -16 -32 -36
-51 l-36 -36 -28 27 c-16 16 -27 32 -24 36 2 4 0 10 -5 14 -14 8 -41 65 -41
86 0 10 -4 21 -10 24 -5 3 -10 17 -10 30 0 13 -4 27 -10 30 -5 3 -10 17 -10
30 0 13 -4 27 -10 30 -5 3 -10 28 -10 56 0 27 -4 49 -10 49 -5 0 -10 18 -10
40 0 22 -4 40 -10 40 -5 0 -10 22 -10 49 0 28 -4 53 -10 56 -5 3 -10 21 -10
40 0 19 -4 37 -10 40 -5 3 -10 26 -10 50 0 24 -4 47 -10 50 -5 3 -10 19 -10
36 0 16 -4 29 -10 29 -5 0 -10 18 -10 40 0 22 -4 40 -10 40 -5 0 -10 18 -10
40 0 22 -4 40 -10 40 -5 0 -10 13 -10 29 0 17 -4 33 -10 36 -5 3 -10 17 -10
30 0 13 -4 27 -10 30 -5 3 -10 17 -10 30 0 13 -4 27 -10 30 -5 3 -10 14 -10
24 0 20 -27 78 -40 86 -5 3 -7 12 -3 21 3 8 -3 24 -12 34 -10 11 -15 20 -10
20 4 0 2 7 -5 15 -21 26 -60 107 -60 126 0 10 -4 21 -10 24 -5 3 -10 15 -10
26 0 10 -4 19 -10 19 -5 0 -10 8 -10 18 0 10 -9 24 -20 32 -11 8 -20 22 -20
32 0 10 -4 18 -10 18 -5 0 -10 9 -10 20 0 11 -4 20 -10 20 -5 0 -10 9 -10 20
0 11 -4 20 -10 20 -5 0 -10 9 -10 20 0 11 -9 25 -20 32 -11 7 -20 18 -20 24 0
15 -29 72 -41 79 -5 4 -18 25 -29 49 -10 23 -26 49 -35 56 -8 7 -15 18 -15 24
0 7 -11 23 -25 36 -13 12 -22 26 -20 30 2 4 -7 18 -20 30 -14 13 -25 29 -25
35 0 7 -9 20 -20 30 -11 10 -20 23 -20 30 0 7 -9 20 -20 30 -11 10 -20 23 -20
30 0 6 -13 24 -30 40 -16 16 -30 34 -30 40 0 6 -13 24 -30 40 -16 16 -30 34
-30 40 0 6 -22 33 -50 60 -27 27 -50 54 -50 60 0 6 -34 44 -75 85 -41 41 -75
79 -75 85 0 13 -352 365 -365 365 -6 0 -48 38 -95 85 -47 47 -89 85 -95 85 -6
0 -33 23 -60 50 -27 28 -54 50 -60 50 -6 0 -29 18 -50 40 -21 22 -44 40 -50
40 -6 0 -24 14 -40 30 -16 17 -34 30 -40 30 -6 0 -24 14 -40 30 -16 17 -34 30
-40 30 -6 0 -22 11 -35 25 -13 14 -29 25 -35 25 -7 0 -20 9 -30 20 -10 11 -23
20 -30 20 -6 0 -22 12 -36 26 -13 14 -42 34 -65 44 -22 11 -47 26 -54 35 -7 8
-18 15 -25 15 -6 0 -20 9 -30 20 -10 11 -26 20 -37 20 -10 0 -18 5 -18 10 0 6
-8 10 -18 10 -10 0 -24 9 -32 20 -8 11 -22 20 -32 20 -10 0 -18 5 -18 10 0 6
-9 10 -20 10 -11 0 -20 5 -20 10 0 6 -6 10 -13 10 -8 0 -56 22 -108 49 -205
107 -315 161 -326 161 -6 0 -37 14 -68 30 -31 17 -68 30 -81 30 -13 0 -24 5
-24 10 0 6 -9 10 -20 10 -11 0 -20 5 -20 10 0 6 -13 10 -30 10 -16 0 -30 5
-30 10 0 6 -13 10 -30 10 -16 0 -30 5 -30 10 0 6 -11 10 -25 10 -13 0 -40 9
-60 20 -20 11 -44 20 -55 20 -10 0 -22 5 -25 10 -3 6 -17 10 -30 10 -13 0 -27
5 -30 10 -3 6 -17 10 -30 10 -13 0 -27 5 -30 10 -3 6 -17 10 -30 10 -13 0 -27
5 -30 10 -3 6 -21 10 -40 10 -19 0 -37 5 -40 10 -3 6 -17 10 -29 10 -13 0 -29
7 -36 15 -7 8 -25 15 -41 15 -16 0 -29 5 -29 10 0 6 -18 10 -39 10 -22 0 -43
5 -46 10 -3 6 -17 10 -30 10 -13 0 -27 5 -30 10 -3 6 -21 10 -40 10 -19 0 -37
5 -40 10 -3 6 -21 10 -40 10 -19 0 -37 5 -40 10 -3 6 -21 10 -40 10 -19 0 -37
5 -40 10 -3 6 -24 10 -46 10 -21 0 -39 5 -39 10 0 6 -18 10 -40 10 -22 0 -40
5 -40 10 0 6 -22 10 -49 10 -28 0 -53 5 -56 10 -3 6 -21 10 -40 10 -19 0 -37
5 -40 10 -3 6 -26 10 -50 10 -24 0 -47 5 -50 10 -3 6 -26 10 -50 10 -24 0 -47
5 -50 10 -3 6 -28 10 -56 10 -27 0 -49 5 -49 10 0 6 -22 10 -49 10 -28 0 -53
5 -56 10 -3 6 -30 10 -60 10 -30 0 -57 5 -60 10 -3 6 -30 10 -60 10 -30 0 -57
5 -60 10 -3 6 -33 10 -66 10 -33 0 -59 4 -59 10 0 6 -30 10 -69 10 -39 0 -73
5 -76 10 -3 6 -35 10 -70 10 -35 0 -67 5 -70 10 -3 6 -35 10 -69 10 -44 0 -67
5 -76 15 -9 11 -34 15 -101 15 -48 0 -91 5 -94 10 -3 6 -44 10 -90 10 -46 0
-87 5 -90 10 -3 6 -46 10 -96 10 -53 0 -89 4 -89 10 0 6 -43 10 -109 10 -63 0
-112 4 -116 10 -4 6 -63 10 -145 10 -82 0 -141 4 -145 10 -4 6 -70 10 -166 10
-99 0 -159 4 -159 10 0 6 -85 10 -235 10 -150 0 -235 4 -235 10 0 7 -263 10
-770 10 -507 0 -770 -3 -770 -10z"/>
</g>
</svg>
